<svg id="Objects" xmlns="http://www.w3.org/2000/svg" viewBox="0 0 203.54 83.17"><defs><style>.cls-1{fill:#f5581f;}.cls-2{fill:#f98d25;}.cls-3{fill:#fff200;}.cls-4{fill:#fcfcfc;}.cls-5,.cls-6{fill:#23151d;}.cls-6{fill-rule:evenodd;}.cls-7{fill:#b21212;}</style></defs><title>Flama keys logo</title><path class="cls-1" d="M18.68,33.17A5.38,5.38,0,0,1,17.41,26s-4.8,2.82-3.39,8-.76,10.72-4.59,14.76C4.13,54.35.34,74.2,23,74.2s18.21-20.91,11.57-28-9-13.06-6.29-17.93S34.14,15,23.84,10.86c0,0,3.28,2.93,2.89,6.49C26.1,23.21,16,25.56,18.68,33.17Z"/><path class="cls-2" d="M31.74,57.32s1.35,6-2.33,5.72-2.26-4.73,0-8,1.59-6.28.16-7.91c0,0-.3,5.51-4.18,6.14,0,0,7.41-9.53-4.73-18.78,0,0,3.39,6.36-3,13.42s-10.84,24.92,4,26.2S35.77,59.3,31.74,57.32Z"/><path class="cls-2" d="M23.87,20.76S27.93,15.72,22,10C22,10,25.84,15.78,23.87,20.76Z"/><path class="cls-3" d="M29.18,30.44s-2.12,4.33,2,9.09A21.65,21.65,0,0,1,29.18,30.44Z"/><circle class="cls-3" cx="21.74" cy="21.03" r="0.27"/><circle class="cls-3" cx="19.81" cy="18.63" r="0.82"/><circle class="cls-3" cx="21.83" cy="16.88" r="0.36"/><circle class="cls-3" cx="12.13" cy="41.93" r="0.23"/><circle class="cls-3" cx="12.3" cy="40.5" r="0.55"/><circle class="cls-3" cx="36.35" cy="44.88" r="0.36"/><circle class="cls-4" cx="13.23" cy="61.07" r="4.05"/><circle class="cls-5" cx="13.23" cy="61.07" r="2.21"/><circle class="cls-4" cx="14.34" cy="59.97" r="1.11"/><rect class="cls-5" x="9.07" y="53.23" width="8.33" height="2.26" rx="1.03"/><circle class="cls-4" cx="32.1" cy="61.07" r="4.05"/><circle class="cls-5" cx="32.1" cy="61.07" r="2.21"/><circle class="cls-4" cx="33.2" cy="59.97" r="1.11"/><rect class="cls-5" x="27.93" y="53.23" width="8.33" height="2.26" rx="1.03"/><path class="cls-6" d="M26.59,64.18v.88a3.86,3.86,0,0,1-.66,2.17,3.92,3.92,0,0,1-7.19-2.17v-.88Z"/><ellipse class="cls-7" cx="22.66" cy="67.23" rx="3.27" ry="1.75"/><path class="cls-1" d="M59.48,57.48l-.54.06a1.07,1.07,0,0,0-.38.13.61.61,0,0,1-.31.09.62.62,0,0,0-.18,0l-.11,0a1.58,1.58,0,0,0-.54.22h-.09s0,0-.1-.07l-.18.07a.92.92,0,0,0-.61.22.42.42,0,0,0-.37,0l-.23.12c0,.05-.07.06-.09.05s0,0,0,0h-.11a.62.62,0,0,1-.18,0s-.11,0-.22.09a.15.15,0,0,1-.12.07H55l0,0h-.06s0,0,0,.13-.1.21-.14.31l-.13.1-.25.44a.32.32,0,0,0-.1.22L54,60.1l-.31.95-.32.73a2.45,2.45,0,0,1-.16.33,2.61,2.61,0,0,0-.16.43,1,1,0,0,0-.15.27,2.53,2.53,0,0,0-.18.44c0,.16-.1.3-.14.44a2,2,0,0,1-.1.3.71.71,0,0,0-.2.25l-.14.29,0,.31-.54.83-.1.38-.12.34-.29.29-.08.11a2.08,2.08,0,0,0-.14.33c0,.08,0,.12-.13.1l-.19.28c-.1.27-.2.53-.3.77l-.36,1c-.17-.27-.24-.44-.22-.51a2.18,2.18,0,0,0,.06-.22.85.85,0,0,0,.07-.41h-.07l-.12.38a1.16,1.16,0,0,0-.13.22,1.22,1.22,0,0,0-.09.32l-.26,0,0-.09a.24.24,0,0,1,0-.13S49,68.9,49,69a.39.39,0,0,1-.16.19,1.24,1.24,0,0,1-.73-.16h0s0,.07-.1.08h-.12a.17.17,0,0,1-.07.13s0,.07,0,.16-.18.21-.23.2l-.4-.08h-.74c-.14,0-.23-.13-.27-.37a2,2,0,0,1-.11-.91,5.39,5.39,0,0,1,.17-1c.07-.3.15-.61.24-1a4.65,4.65,0,0,1,.43-1c.17-.47.35-.92.55-1.38a6.38,6.38,0,0,0,.4-1.15,5,5,0,0,0,.39-1.06,4.62,4.62,0,0,1,.43-1.06c.17-.44.41-1,.73-1.64l1-2.12a19.51,19.51,0,0,1,1-1.88c.35-.6.69-1.21,1-1.82l1.71-2.91L54,50.15a1.33,1.33,0,0,1-.36-.29c-.14-.15-.19-.16-.14,0a.67.67,0,0,1-.22-.27,1.57,1.57,0,0,0-.26-.33s-.1,0-.38-.19a.74.74,0,0,0-.44-.47,1.25,1.25,0,0,1-.57-.61.42.42,0,0,0,.14-.26c0-.14.07-.26.11-.37a3.79,3.79,0,0,1,.65-.71,2.13,2.13,0,0,1,1-.39A5.9,5.9,0,0,0,54.6,46c.36-.14.73-.26,1.09-.37.19-.06.43-.13.72-.2s.59-.16.89-.27l.19-.22s0,0,0,0l.08-.1.25-.31.29-.22a.65.65,0,0,1,.2,0c.08,0,.16-.08.24-.25.15.06.25.06.32,0l.22.1.57.31,2.12-.5,1.29-.32c.44-.1.89-.2,1.33-.28l1.15-.21a1.36,1.36,0,0,1,.49,0l.48,0c.21,0,.61-.07,1.2-.17l.79,0c.31,0,.66-.06,1-.08a5.62,5.62,0,0,1,1,.05,1.61,1.61,0,0,0,.36,0l.22,0a.27.27,0,0,1,.15,0,.7.7,0,0,1,.15.21c.09.16.12.26.1.3s-.09,0-.19,0-.14,0-.09,0,.08.07.12.17a.35.35,0,0,1-.14.07.17.17,0,0,0-.11.06l-.1.06a.09.09,0,0,1-.06,0,.38.38,0,0,1,0,.41.33.33,0,0,0,.16.38l-.08.18a.37.37,0,0,0,0,.11A.36.36,0,0,1,71,45s-.07.06-.17.08a0,0,0,0,0,0,0s0,0-.08,0a1.24,1.24,0,0,0-.44.35,2.38,2.38,0,0,1-.45.38.09.09,0,0,0,0,.06s.07.08.19.19c-.34.06-.48.2-.44.41a4.75,4.75,0,0,0-.81.19c-.26.08-.52.16-.77.22q-.63.16-1.23.27l-1.49.27a3.7,3.7,0,0,0-.66.19l-.7.25a6.54,6.54,0,0,1-.8.28l-.67.21a7.35,7.35,0,0,0-.76.3l-1.12.51s0,.06,0,.07a.28.28,0,0,0-.06.08.28.28,0,0,1-.13.11c-.06,0-.1.07-.1.11a4.26,4.26,0,0,0-.26.35,1.46,1.46,0,0,0-.15.35,1,1,0,0,1-.34.51,1.47,1.47,0,0,1-.23.47,2.74,2.74,0,0,0-.22.38,1,1,0,0,1-.22.44.94.94,0,0,0-.19.48q-.09.06-.09.09a.22.22,0,0,1-.19.16,4.67,4.67,0,0,1-.24.62,6.36,6.36,0,0,1-.3.58,4.94,4.94,0,0,0-.39.44,1.24,1.24,0,0,0-.24.45c.08-.11.1-.11,0,0l-.21.3c.25,0,.52-.1.79-.17a7.52,7.52,0,0,1,.85-.18c.34-.08.68-.15,1-.2s.68-.1,1-.15l2-.34a3.31,3.31,0,0,1,.55,0,.5.5,0,0,1,.37.37v0a.17.17,0,0,1,0,.12h.11l.11,0c.08,0,.14,0,.16,0s0,0,0,0a.16.16,0,0,0,0,.08.26.26,0,0,0,.16.08.55.55,0,0,1,.13.3c0,.1-.12.15-.35.17l-.1.13.22.13a.29.29,0,0,1-.22.09c0,.05.08.06.1,0a.17.17,0,0,1,.12,0,.41.41,0,0,1,.21.05.51.51,0,0,1,.14.3h-.25l-.13.09s.07,0,.13,0,.08.15.06.15a1.31,1.31,0,0,1-.63.4,1.59,1.59,0,0,1-.6.08H63a.11.11,0,0,1-.07,0,.24.24,0,0,0-.15,0,11,11,0,0,0-1.51.32l-1.43.41a.55.55,0,0,1-.32.06Zm-5.91-7.65.06,0h-.05a.05.05,0,0,0,0,0Z"/><path class="cls-1" d="M67.63,62.19A6.33,6.33,0,0,0,68.87,62q.6-.16,1.26-.3l1.05-.19.61-.11.62-.09,1.1-.15.37-.06.39,0,.29,0,.35.06H75a.27.27,0,0,1,.15,0c.14,0,.21.09.2.15a.72.72,0,0,0,.08.3c-.06-.07-.11-.06-.14,0s-.07.09-.11,0a.16.16,0,0,1-.18,0c-.07,0-.12,0-.14,0a.25.25,0,0,0,.18.08l.17,0c0,.06-.07.09-.16.09a.24.24,0,0,0-.19.07s0,0,0,.06a.11.11,0,0,1,0,.09.69.69,0,0,0-.4,0l-.24.14a.37.37,0,0,0,.32,0l.32-.11a1.62,1.62,0,0,1-.24.14.85.85,0,0,1-.3,0s0,.06,0,.05a.1.1,0,0,1,.09,0,.24.24,0,0,0-.09.11c0,.06-.06.08-.13.08s.19.25.45.35l-.07,0h0v0c0,.13,0,.19.16.19-.06.05-.06.07,0,.08s.12,0,.12,0a.3.3,0,0,1-.31.16,1.18,1.18,0,0,0-.77.2,1,1,0,0,1-.38.15l0,.06a5.61,5.61,0,0,0-1.06.14l-1.06.24s0,0,0,0a.18.18,0,0,1-.08.06l-.22.1a6,6,0,0,0-.81.27l-.25.12a1.23,1.23,0,0,1-.26.13,5.26,5.26,0,0,1-.8.21l-1.2.41a3.13,3.13,0,0,0-1.12.57,6.73,6.73,0,0,1-1.06.66,6.93,6.93,0,0,0-.9.19,9.21,9.21,0,0,1-.94.19q-.12,0-.12-.06s0-.07-.1-.07-.26-.06-.22-.12,0-.15-.13-.26a1.91,1.91,0,0,1-.06-.42A1,1,0,0,0,63,66c0-.14-.1-.2-.16-.15s-.09,0-.09-.13a.66.66,0,0,0-.1-.32,1.68,1.68,0,0,1-.16-.33,1.93,1.93,0,0,1-.09-.38.66.66,0,0,1,.09-.42.8.8,0,0,1,.19-.38s.07-.08.07-.11a.19.19,0,0,1,.06-.12l.44-.18a1.09,1.09,0,0,1-.25,0c.31-.86.63-1.63.93-2.32s.62-1.34.93-2l1-1.9c.32-.64.65-1.34,1-2.1.49-1.12,1-2.22,1.46-3.32s1-2.19,1.54-3.28a3.62,3.62,0,0,0,.13-.35,1.19,1.19,0,0,1,.19-.35.71.71,0,0,0,.19-.16.32.32,0,0,0,0-.14.32.32,0,0,1,.06-.17,2.24,2.24,0,0,1,.38-.29,2,2,0,0,1,.48-.19.42.42,0,0,1,.14-.09l.17-.1a.37.37,0,0,1,.42-.06.32.32,0,0,1,.2.19,1.13,1.13,0,0,0,.11.22.56.56,0,0,0,.22.19.38.38,0,0,1,.19.13l.29.37a3.59,3.59,0,0,0,.39.42,1.13,1.13,0,0,1,.33.47,2.21,2.21,0,0,1,.18.46,1.85,1.85,0,0,1,.08.49,2,2,0,0,1-.45.88,3.11,3.11,0,0,0-.5.79l-.48.73a4.12,4.12,0,0,0-.37.79,4.73,4.73,0,0,0-.59.87c-.18.33-.34.65-.49,1a17.28,17.28,0,0,1-.79,1.62,11.23,11.23,0,0,0-.76,1.61,2,2,0,0,0-.2.38c-.06.12-.11.27-.18.44A1,1,0,0,1,69,59a2.24,2.24,0,0,0-.19.27,5.44,5.44,0,0,1-.23.54l-.18.36-.19.35A4.78,4.78,0,0,0,68,61a2.47,2.47,0,0,1-.19.6A4.23,4.23,0,0,0,67.63,62.19ZM66.5,61.4a.27.27,0,0,0-.13.13q-.06.09.06.12A.39.39,0,0,1,66.5,61.4Zm.19.22c-.07,0-.09,0-.08,0s0,0,0,.07h.11S66.75,61.66,66.69,61.62Zm.12,0s0-.06-.08-.06-.07,0,0,.06,0,0,0,0S66.75,61.55,66.81,61.59Zm1.08-2.31a.13.13,0,0,0-.13,0s-.08,0-.13,0,0,.08,0,.11,0,.08,0,.14v0a3.07,3.07,0,0,0-.19.34,1.93,1.93,0,0,0-.09.38h0a2.38,2.38,0,0,1-.3.56,4.24,4.24,0,0,0-.36.61s.06,0,.06,0,0,0,.06,0a1.5,1.5,0,0,0,.26-.31,1,1,0,0,0,.34-.1s0,0-.06,0a.06.06,0,0,1-.09,0c.12,0,.19,0,.19-.08a.33.33,0,0,0,0-.14.24.24,0,0,1,0-.11.39.39,0,0,0,0-.14,2.37,2.37,0,0,1,.25-.29.37.37,0,0,0,.09-.35c-.06,0-.09,0-.09.05a.11.11,0,0,1,0,.08s0,0-.07,0,0,0-.09,0a.43.43,0,0,1,.08-.21.68.68,0,0,0,.11-.26h-.06c.1,0,.14-.07.11-.13S67.78,59.32,67.89,59.28Zm-.73,2a.31.31,0,0,0-.13.23v.28h0a.37.37,0,0,1,.07-.25A.24.24,0,0,0,67.16,61.3Zm.25-2.15h-.09c0,.07,0,.1,0,.1S67.41,59.22,67.41,59.15Zm.6-.31a.35.35,0,0,0-.2.17.42.42,0,0,1-.14.18c.16.06.25,0,.26-.08A.72.72,0,0,1,68,58.84Zm-.09.92h-.1l-.09,0a.09.09,0,0,0,.13,0S67.92,59.78,67.92,59.76Zm.13-.95a1.84,1.84,0,0,1,.15-.35l.19-.32-.11,0s0,0,0,0h.16a.91.91,0,0,0,.11-.3.52.52,0,0,1,.17-.3.12.12,0,0,0-.1.06s-.06.06-.12,0,.13-.26.2-.38a1.3,1.3,0,0,0,.15-.38.67.67,0,0,0,.23-.27.37.37,0,0,0,.05-.27l0,0H69c-.11.17-.2.34-.29.51s-.18.33-.28.5a.07.07,0,0,0,0,0,.08.08,0,0,1,0,.05h0a.42.42,0,0,1-.13.33.33.33,0,0,0-.09.33h-.13s0,0,.06,0a.06.06,0,0,1,.07.07q-.17,0-.18,0a.22.22,0,0,0,0,.09.47.47,0,0,0-.15.24,1,1,0,0,1-.08.27.22.22,0,0,0,.1,0Zm0,.53a.09.09,0,0,1,0,.07.12.12,0,0,0,0,.09s.07,0,.1-.08S68.06,59.34,68,59.34Zm.38-.44a.2.2,0,0,0,0-.11s0-.08.07-.14a.56.56,0,0,0-.24.24,1.51,1.51,0,0,1-.18.26c.07,0,.08,0,0,.05a.16.16,0,0,0,0,.11.24.24,0,0,0,.18-.2A.25.25,0,0,1,68.39,58.9Zm.26-2.69q.09,0,.09-.15a.12.12,0,0,0-.09,0l-.13.09c.06,0,.08.06,0,0s0,0,0,0,0,0,0,.09a.09.09,0,0,1,0,.1,0,0,0,0,1,0,0h-.06a.27.27,0,0,0-.1.31,1.2,1.2,0,0,1,.21-.31A.42.42,0,0,0,68.65,56.21Zm.15.19c-.06,0-.09,0-.07.05s0,0,0,.08S68.8,56.49,68.8,56.4Zm.19-.79-.17.21c0,.07-.06.13,0,.17L69,55.8A.13.13,0,0,0,69,55.61Zm-.09.6a.09.09,0,0,0-.1.1C69,56.31,69,56.28,68.9,56.21Zm.09-1a.14.14,0,0,0-.12,0,.06.06,0,0,0,0,.08s.06,0,.06,0A.18.18,0,0,1,69,55.17Zm.1.79C69,56,69,56,69,56S69.09,55.94,69.09,56Zm.22-.5c.06,0,.1,0,.11,0a.05.05,0,0,1,0,0,1.13,1.13,0,0,1,.12-.38,1.33,1.33,0,0,0,.16-.34c-.06,0-.09,0-.09-.07a.61.61,0,0,0,.12-.22.28.28,0,0,0,0-.22l-.27.49a2.91,2.91,0,0,0-.24.46c0,.06,0,.09.06.08s.07,0,.07,0-.19,0-.19.07h0l0,0a.41.41,0,0,0-.19.11l-.06.11s.06,0,.06,0,0,0,.1,0a.41.41,0,0,0-.12.17.6.6,0,0,1-.07.18c.12-.05.17-.11.15-.19S69.2,55.5,69.31,55.46Zm.09.28q-.12,0-.12.06a.28.28,0,0,1,0,.13h0l.09-.09A.15.15,0,0,0,69.4,55.74Zm.45-.41a.19.19,0,0,0-.18.08c0,.05,0,.09,0,.11A.45.45,0,0,0,69.85,55.33Zm.16-.41a.26.26,0,0,0-.12.06l0,.07,0,0a.07.07,0,0,1,.06-.08A.08.08,0,0,0,70,54.92Zm.28-.41a0,0,0,0,1,0,0c-.11,0-.15.08-.14.11s0,.08-.05.14.16,0,.16-.1A.17.17,0,0,1,70.29,54.51Zm-.16.38s-.06,0,0,0,0,0,0,.06.08,0,.06,0A0,0,0,0,1,70.13,54.89Zm.32-.73a1.45,1.45,0,0,0,.41-.7h-.19a.43.43,0,0,0,0,.19c0,.07,0,.12-.14.16s0,.06.06,0,.07,0,.07,0-.17.09-.18.15a.37.37,0,0,1-.14.22h.13Zm.54-.95c-.19,0-.28.12-.26.22S71,53.32,71,53.21Z"/><path class="cls-1" d="M78.82,63.64v.07a.39.39,0,0,1-.12.41h0l-.06.06a.53.53,0,0,0-.13.16l-.13.22a1.36,1.36,0,0,0-.19.27.53.53,0,0,1-.25.24v0a.55.55,0,0,0-.19.18,1,1,0,0,1-.09.17.83.83,0,0,0-.07.13.22.22,0,0,1-.15.09c-.13,0-.19,0-.19-.09a.31.31,0,0,1-.26.16.24.24,0,0,1-.19.22.52.52,0,0,1-.28.12c-.23,0-.27,0-.1-.09h-.12a.28.28,0,0,0,0,.25.19.19,0,0,0-.13,0c-.13,0-.19,0-.19,0H74.15a1.07,1.07,0,0,1-.32,0l-.13-.19a5.27,5.27,0,0,1,.21-1,5.46,5.46,0,0,1,.3-.79s0,0,.05-.1a.75.75,0,0,1,0-.16,3.86,3.86,0,0,0,.26-.42c.08-.16.18-.32.28-.49v0a.57.57,0,0,1,.08-.19l.11-.16a.4.4,0,0,0,.1-.17l.06-.21.32-.52a4.89,4.89,0,0,0,.25-.52l.5-.76-.57.06a1.74,1.74,0,0,1-.34.05l-.38,0a1.58,1.58,0,0,1-1-.26l0,0v-.06s0,0,0,0,0,0,0,0L74,60a.19.19,0,0,1,.08-.14.36.36,0,0,1,.2-.11c.19,0,.31,0,.35-.1l-.32-.06a.45.45,0,0,1-.22-.1l-.35-.06q-.09,0,.54,0s0,0,0,0l0,0v0c0-.05,0-.09.1-.13a.48.48,0,0,1,.28-.22l.1-.07h.17a.39.39,0,0,1,.17,0c.3,0,.63-.11,1-.19a6.47,6.47,0,0,0,1.05-.35l.47-.13,2.1-3.13c.73-1.07,1.47-2.1,2.23-3.09l.54-.76c.19-.28.38-.53.57-.76s.36-.52.57-.79.41-.56.6-.86h0l.41-.41a4.28,4.28,0,0,1,.32-.42,2.19,2.19,0,0,0,.31-.59,1.32,1.32,0,0,1,.35-.19.42.42,0,0,1,.16-.09.39.39,0,0,0,.16-.1l.28-.19a.61.61,0,0,1,.35-.12h.32a1.63,1.63,0,0,1,.44-.08.36.36,0,0,1,.31.08,1.1,1.1,0,0,1,.76,0h.19l.19,0c.09,0,.2.11.35.35l0,0a.59.59,0,0,0,.41,0,2.17,2.17,0,0,1,.51,0,.3.3,0,0,1,.31.17,1.86,1.86,0,0,1,.19.37,2.66,2.66,0,0,1,.1.63c0,.27,0,.52.06.73a.43.43,0,0,0,0,.11.34.34,0,0,1,0,.11v.88a10.38,10.38,0,0,0-.06,1.09v1.09c0,.24,0,.47,0,.71a5.67,5.67,0,0,1-.1.72,5.32,5.32,0,0,0-.08.64c0,.2,0,.42,0,.65h.38l.35,0,.77-.09a2.6,2.6,0,0,1,.77,0c.07,0,.11,0,.13.06l0,0h0l.25.1a.22.22,0,0,1,.16.22l-.13.19-.22-.16a.53.53,0,0,0,.16.2.13.13,0,0,1,0,.18l-.13,0v.06h-.06V56a.19.19,0,0,1,0,.07.13.13,0,0,0,0,.06v.06s0,0,0,.07,0,0,0-.07l-.06.32a.09.09,0,0,1-.06,0l0,0H92.7l0,0h-.07l-.07,0a.25.25,0,0,1-.16-.06s-.07,0-.09,0H92.2l-.15,0a.22.22,0,0,1-.14,0s0,0,0,0,0,0,0,0a.65.65,0,0,0-.38.08,3.4,3.4,0,0,1-.38.24l-.35.09,0,.13a.16.16,0,0,0-.13,0,.24.24,0,0,1-.09.08v0l0,.07a.2.2,0,0,1,0,.09.17.17,0,0,0,0,.07v.06a1.24,1.24,0,0,0-.07.39,1.52,1.52,0,0,0,.07.43.15.15,0,0,1-.05.08.15.15,0,0,0,0,.08l-.13.13v1.7c0,.07,0,.07,0,0a.41.41,0,0,1,0-.19.56.56,0,0,0-.06.22.58.58,0,0,1-.13.32v0l0,.06c0,.11,0,.22-.16.32,0-.08,0-.18,0-.3s0-.19,0-.24a1.51,1.51,0,0,1,0-.26V60h0a.92.92,0,0,0,0-.19.78.78,0,0,1,0-.16,2.86,2.86,0,0,1-.06-.51h0c0,.05,0,.08,0,.1a.14.14,0,0,1,0,.06.38.38,0,0,0,0,.16s0,.12-.13.22a.38.38,0,0,1-.12-.32v.26a1.41,1.41,0,0,0,0,.39,1.16,1.16,0,0,1-.06.4v.06h0v.6a.08.08,0,0,0,0,.05s0,0,0,.08a2.43,2.43,0,0,1,0,.85s0,.06-.09.13a.78.78,0,0,0,0,.27,1.14,1.14,0,0,0,0,.23l.06.41a.53.53,0,0,1,.13-.28l0,0c0-.07.07-.15.19-.25v.28a.23.23,0,0,1,.1.19.24.24,0,0,1-.07.19.7.7,0,0,0,0,.16.49.49,0,0,1,0,.12,1.4,1.4,0,0,1,0,.41,1,1,0,0,1-.08.35H89.7a1.22,1.22,0,0,0,0,.32c0,.08,0,.19,0,.33a3,3,0,0,1-.08.46l-.06-.16v.16s0,.07,0,.08,0,0,0,0h-.1c-.08,0-.13.17-.13.45A.29.29,0,0,0,89,66l-.09.1.13.09a.17.17,0,0,1,0,.17.82.82,0,0,0,0,.18.32.32,0,0,0,0,.19l-.15-.16c0,.13,0,.18,0,.16s-.1,0-.21.16h-.44a2,2,0,0,1-.3-.3.55.55,0,0,1-.09-.23,1.29,1.29,0,0,1,0-.28,3.42,3.42,0,0,0,0-.52l-.13-.63c-.08-.8-.13-1.64-.14-2.5s0-1.73,0-2.59v-1c0-.32,0-.64,0-1a.55.55,0,0,0-.44,0l-.16,0h-.19a5.81,5.81,0,0,0-.85.21l-.92.27H84.8l-.1,0v.06a1.15,1.15,0,0,1-.09-.22,2,2,0,0,0-.7.32v-.07c-.08.13-.17.13-.25,0a.07.07,0,0,1-.06.08l-.1,0a.57.57,0,0,1-.41.12s0,0-.06,0l-.11.06-.14.06-.18,0a.39.39,0,0,0-.2.08l-.19.12L82.14,59l.13-.06-.44.16c-.07.06-.11.09-.13.09s-.06.08-.13.23l-.11.19c0,.06,0,.12-.08.19a.73.73,0,0,0-.31.47l-.22.19a.57.57,0,0,0,.22,0,.61.61,0,0,0-.21.23,2.56,2.56,0,0,1-.11.24l-.2.27a1.79,1.79,0,0,1-.24.24v0a1,1,0,0,0-.19.41v-.07a.86.86,0,0,1-.13.38q-.15,0-.15,0l-.07.22a.76.76,0,0,0-.27,0,.16.16,0,0,0-.11.14l0,0,.06,0,.09,0v.11a.32.32,0,0,0,0,.14,1.2,1.2,0,0,1-.22.44,4,4,0,0,1-.28.32Zm-2.15,2a.1.1,0,0,0,0-.09h0l0,0Zm.61-.19,0,0h0Zm.63-1.07-.07.22-.15.22h.09l0,.13.28-.47v-.1Zm1.1-1.9s0,0,0,0,0,0,.06-.06a.8.8,0,0,1,.22-.54,1.87,1.87,0,0,0-.28.35l-.29.44a.15.15,0,0,0-.09.16h-.13v-.1a.23.23,0,0,0,0,.13.86.86,0,0,0-.25.48.4.4,0,0,0-.21.14.89.89,0,0,0-.08.17l.06-.12v.25l0-.13a1.31,1.31,0,0,0,.25-.33c.06-.12.14-.26.22-.43h.13V63l.15-.1v-.09l-.06,0,.1-.16A.4.4,0,0,1,79,62.47ZM78,63c0,.09,0,.13-.06.13v.06l0,0a.5.5,0,0,0,0-.13.19.19,0,0,1,0-.09Zm.45.85v.07l.09-.19v0a.17.17,0,0,0-.06.11S78.5,63.86,78.48,63.86Zm.15-2.81a.19.19,0,0,0-.09.16,0,0,0,0,1,0,0A.19.19,0,0,1,78.63,61.05Zm-.06,1.49a.12.12,0,0,0,0,.09A.12.12,0,0,1,78.57,62.54Zm.1-.16a.3.3,0,0,1-.07.08s0,0,0,.08a.13.13,0,0,1,0-.07Zm.34-.51.1-.12v-.07Zm.16-.31.16-.13.06-.22Zm.22-1.27a.22.22,0,0,0-.06.13l.13-.13Zm.22-.31h0v0h0Zm.54.79c-.06.08-.14.18-.22.3a3.15,3.15,0,0,0-.22.33l.06,0,.22-.22h-.06a.64.64,0,0,0,.13-.19A.66.66,0,0,1,80.15,60.77Zm3.51-4.05,1.88-.43a15,15,0,0,0,1.91-.55,8.77,8.77,0,0,0,.07-1.15c0-.39,0-.8,0-1.22a2.94,2.94,0,0,1,0-.62,3.74,3.74,0,0,0,0-.61.85.85,0,0,1,0-.29v-.14a.11.11,0,0,0-.09-.11s-.1.08-.3.36-.39.54-.56.75l-.66.82-.08.16a.22.22,0,0,0,0,.09.56.56,0,0,0-.24.24,2.09,2.09,0,0,1-.21.3l-.22.25v0a.71.71,0,0,1-.13.35.77.77,0,0,0-.31.31l-.44.48L84.2,56a.66.66,0,0,1-.11.16.26.26,0,0,0-.08.16l-.18.14A1.91,1.91,0,0,0,83.66,56.72Zm2.56.82v0l0,.13v-.06l0,0v-.07Zm2.4,6s0,0,0,0Zm.29-1.52a.37.37,0,0,0,0,.15v.11s.06-.07.06-.19,0,0,0,0S88.91,62.08,88.91,62.06ZM89.07,60v.09l.09,0c0-.15,0-.28,0-.41a1.29,1.29,0,0,1,.08-.38.11.11,0,0,1-.07,0l-.06,0s-.06,0,0,0,0,0,0,0v.19a.36.36,0,0,1,0,.19.5.5,0,0,0,0,.12A.58.58,0,0,1,89.07,60Zm.15.91a.28.28,0,0,0,0-.08.23.23,0,0,1,0-.14l0,.06c0,.05,0,.07,0,.08a.15.15,0,0,0,0,.08l-.06.34a2,2,0,0,0,0,.36l.06,0v-.07a.33.33,0,0,1,0-.15A2,2,0,0,1,89.22,60.89Z"/><path class="cls-1" d="M111.6,46.83a0,0,0,0,1,0,0l.06,0a.28.28,0,0,1,.13,0l.25.1a.31.31,0,0,1,.12.14,1.05,1.05,0,0,0,.16.2,1,1,0,0,0,.29.3l.25.18a1.73,1.73,0,0,1,.79.82.93.93,0,0,1,.08.55,3.06,3.06,0,0,1-.14.56l-.22.53s-.06,0,0,0,0,.05,0,.05q-.19.54-.3.93c-.07.27-.14.52-.2.76s-.14.5-.23.76a6.11,6.11,0,0,1-.38.9c-.16.42-.35.85-.55,1.28s-.39.86-.58,1.28a.49.49,0,0,0-.19.33.51.51,0,0,1-.19.33,3,3,0,0,1-.19.48,2.79,2.79,0,0,0-.22.6l-.08.08-.08,0a.71.71,0,0,1,.19-.34.31.31,0,0,0-.21.22.61.61,0,0,1-.14.25.41.41,0,0,1,0,.22.09.09,0,0,0,.05-.11s0-.08,0-.08a0,0,0,0,1,.06,0h.06a.09.09,0,0,1,0-.05,4,4,0,0,1-.44.92.78.78,0,0,1,.1-.34,1.7,1.7,0,0,0,.12-.33q-.09,0-.09.21a.26.26,0,0,1-.16.24c0,.16-.1.37-.17.63a4.11,4.11,0,0,1-.27.66,0,0,0,0,0,0,0s0,0,.06,0a3.28,3.28,0,0,0-.33.91,3.85,3.85,0,0,1-.36,1,3.59,3.59,0,0,1,.2-.69c.1-.23.19-.48.27-.73a1.8,1.8,0,0,1,.14-.68,2.68,2.68,0,0,0,.21-.68.11.11,0,0,0-.1.08.12.12,0,0,0,0,.14c-.08,0-.12.1-.11.18a.15.15,0,0,1-.08.17,2.29,2.29,0,0,1-.14.56,2.62,2.62,0,0,0-.14.55.88.88,0,0,0-.17.35,2.72,2.72,0,0,1-.11.34l0,0a3,3,0,0,0-.21.79,2.57,2.57,0,0,1-.2.72s.06,0,.06-.08a.11.11,0,0,1,.06-.11c0,.11-.08.21-.11.32a1.13,1.13,0,0,0,0,.32s0,.06,0,.07a.48.48,0,0,0,0,.18,0,0,0,0,0,0,0s0,0-.16,0,0,.19-.06.19,0,0-.06-.05a.19.19,0,0,0-.07-.06s0,0,0,.17-.16.12-.16.16,0,0,0,0,0,0,0,0a.28.28,0,0,0,0,.16.19.19,0,0,1,0,.16.05.05,0,0,0-.06.06v.24s0,0,0,0l0,0a.25.25,0,0,1,0,.17s0,.1,0,.21-.07,0-.08,0-.07,0-.18,0,0,0,.08,0,0,0,0,0a.13.13,0,0,0,0,.06s0,0-.08,0a.11.11,0,0,1-.05.1s0,0,0,.09a.41.41,0,0,0-.29.32.08.08,0,0,1-.08,0s0,0,0,0l-.13.12a.57.57,0,0,1-.19.13.32.32,0,0,1-.41,0,.72.72,0,0,0-.32-.17,1.66,1.66,0,0,1-.22-.41,2.47,2.47,0,0,1-.09-.41,1.18,1.18,0,0,1,0-.41.58.58,0,0,1,.06-.21l.11-.2a1.52,1.52,0,0,0,.13-.41,2.79,2.79,0,0,0,.06-.48c.21-.84.44-1.69.68-2.56s.5-1.69.78-2.5c.06-.23.12-.46.19-.69a4.76,4.76,0,0,1,.19-.6c0-.07.08-.12.11-.18a.33.33,0,0,0,0-.17,5.46,5.46,0,0,0,.35-1.25,6.19,6.19,0,0,1,.35-1.25h.06l.16-.58c0-.14.09-.26.13-.38l.12-.36c.05-.13.12-.31.23-.54-.36.42-.69.82-1,1.2l-1,1.22-1.23,1.42c-.46.52-1,1.11-1.63,1.78-.17.24-.35.47-.52.7a3.67,3.67,0,0,0-.46.76l-.27.35c-.08.08-.15.17-.22.25a3.48,3.48,0,0,0-.24.28,2.26,2.26,0,0,0-.25.45l-.76,1.06a9.22,9.22,0,0,0-.73,1.18l-.05,0h-.07a.84.84,0,0,1-.57.51h-.7a1,1,0,0,0-.36-.06,1.06,1.06,0,0,1-.37-.07l-.11-.06a.2.2,0,0,0-.11,0,.86.86,0,0,0-.28-.13A.2.2,0,0,1,98,63v-.16a11,11,0,0,1-.41-3.27q0-1.72.09-3.33c0-.17,0-.34,0-.49a1.41,1.41,0,0,0-.05-.46s-.06.05-.12.16l-.57,1.2s0,.06,0,.06,0,0,0,.06-.07,0-.07,0,0,0-.12,0a1.15,1.15,0,0,0-.1.33.42.42,0,0,1-.16.27v.16a.47.47,0,0,0-.09.12.51.51,0,0,1-.09.13.09.09,0,0,0,0,.06h-.07s0,0,0,.06,0,.06,0,.1a.44.44,0,0,0-.06.28.13.13,0,0,0-.14.12,1.17,1.17,0,0,1,0,.2h0a.28.28,0,0,1-.09.1.11.11,0,0,0-.07.12H96a.57.57,0,0,0-.1.27.36.36,0,0,1-.19.27c.11,0,.12.08,0,.13s-.1.08-.06.12h-.09c0,.07,0,.12,0,.16a.57.57,0,0,0-.08.13v0a.38.38,0,0,0-.15.35s0,0,0,0,0,0,.08,0,0,0-.06,0a.08.08,0,0,0-.1.05c.07.06.1.09.1.06a.39.39,0,0,0-.1.19.35.35,0,0,1-.16.22c0,.09-.08.18-.11.27s-.06.2-.08.3l.07,0s0,0,0,0,0,0,0,0a4.4,4.4,0,0,0-.34.74,7.17,7.17,0,0,0-.22.71s.05,0,0,0a0,0,0,0,0,0,0c-.09,0-.13.12-.13.29s-.16.21-.16.44a3.84,3.84,0,0,1-.16.52,2.49,2.49,0,0,1-.25.52,4.08,4.08,0,0,1,.2-.85A2.67,2.67,0,0,0,94,63.2a.51.51,0,0,1,.09-.16s0,0,0,0h0a3.34,3.34,0,0,0,.14-.41,1.17,1.17,0,0,0,0-.41.38.38,0,0,0-.08.22.19.19,0,0,1-.14.19.77.77,0,0,1,.06-.3,1,1,0,0,0,.1-.27,1.48,1.48,0,0,1,.19-.55.61.61,0,0,0,.06-.46.24.24,0,0,0-.16.24.26.26,0,0,1-.09.23,1.47,1.47,0,0,1-.18.59,1.21,1.21,0,0,0-.14.52s-.06,0-.05.06a.07.07,0,0,1,0,.1.36.36,0,0,1-.08.24.43.43,0,0,0-.11.2,1.09,1.09,0,0,0-.18.55,1.79,1.79,0,0,1-.14.62v0a.47.47,0,0,0-.16.27.3.3,0,0,1-.15.24.78.78,0,0,0,0-.32.69.69,0,0,0,0-.19h-.07a.51.51,0,0,0-.09.13s0,.11,0,.22l-.1.14s-.07,0-.15,0a.25.25,0,0,0,0,.11s0,0,0,.08,0,0,0,0,0,0,0,0-.06.13-.19.13a.31.31,0,0,1,.09-.26c0-.06-.08-.06-.12,0s0,.08,0,.08a.22.22,0,0,1-.13.06s-.06.08-.05.11a.14.14,0,0,1,0,.11l-.4,0H90.74a1.39,1.39,0,0,1-.35,0,.43.43,0,0,0,0-.2l-.06-.11a2,2,0,0,1-.1-.92,5.83,5.83,0,0,1,.19-.82l.83-2.56a5.67,5.67,0,0,1,.33-.92,4.93,4.93,0,0,0,.27-.82,0,0,0,0,0,0,0s0,0,.06,0c.19-.58.4-1.16.63-1.73s.49-1.13.76-1.68c.36-.88.72-1.73,1.09-2.54s.71-1.64,1-2.49a2,2,0,0,1,.19-.6c.08-.16.18-.36.28-.6a.09.09,0,0,1,0-.11.14.14,0,0,0,0-.11.92.92,0,0,1,.16-.27.63.63,0,0,0,.12-.33c.17,0,.25-.13.25-.28a.44.44,0,0,1,.42,0,.27.27,0,0,0,.06.19h.16l.15,0h.26a2.75,2.75,0,0,0,.42,0h.68l.48.13a.31.31,0,0,1,.17.09,1.08,1.08,0,0,0,.18.13.69.69,0,0,0,.22.12c.06,0,.09.06.09.1a.33.33,0,0,0,.13.16l.16.12c0,.07,0,.11.11.15a.23.23,0,0,1,.14.11,1.09,1.09,0,0,1,.24.47c0,.21.1.39.14.54a3.68,3.68,0,0,1,.16,1.59c-.07.56-.12,1.13-.16,1.7s-.08,1.33-.11,2-.07,1.42-.11,2.14a1.3,1.3,0,0,0,.31-.41,1.22,1.22,0,0,1,.32-.41v-.07q1.08-1.52,2.16-2.94c.73-.95,1.52-1.88,2.36-2.81.17-.19.29-.33.38-.41l.22-.22c.06-.07.14-.13.22-.21a3.6,3.6,0,0,0,.38-.39,4.28,4.28,0,0,0,.43-.37l.33-.36c.4-.29.83-.64,1.3-1a8.46,8.46,0,0,1,1.35-1,.47.47,0,0,1,.35-.1.45.45,0,0,0,.37.11c.15,0,.23-.08.23-.2a.29.29,0,0,0,.24-.14.17.17,0,0,1,.17-.12c.05,0,.06,0,0-.07S111.6,46.85,111.6,46.83ZM94.41,62a.13.13,0,0,1-.1,0A.13.13,0,0,0,94.41,62Zm12.9,2.85.06,0Zm.66-1.24s0,0,0,0,0,0,.06,0v0Zm0-.5,0-.07A.13.13,0,0,0,108,63.14Zm.41.76.06,0a.06.06,0,0,0,0,.08s0,0-.05,0A.49.49,0,0,0,108.38,63.9Zm.06-1s0,0,0,0,0,0,0,0v0Zm.19-.47-.06.19a1,1,0,0,1-.1.22v-.16s.06,0,0,0,0,0,0,0a.89.89,0,0,1,0-.19c0-.09,0-.18.06-.29a0,0,0,0,1,0,0s0,0,0,0,.06.06,0,.11A.22.22,0,0,0,108.63,62.38Zm.22-.19c.05,0,.06,0,0,.05s0,0-.07,0v0S108.83,62.19,108.85,62.19Zm.07-.1v0Zm.06-.22a0,0,0,0,1,0,.07.12.12,0,0,0,0,.09s0-.07,0-.09A.11.11,0,0,0,109,61.87Zm.76-2.59a2.17,2.17,0,0,1-.08.3c0,.1-.06.19-.08.27a0,0,0,0,1,0,0c0,.12,0,.2-.09.22s.07,0,.08,0,0,0,0,0a1.21,1.21,0,0,1-.23.5,1.05,1.05,0,0,0-.18.67.32.32,0,0,0-.17.25,1.16,1.16,0,0,1-.11.35,3.86,3.86,0,0,1,.3-1.13,6.8,6.8,0,0,0,.39-1.18s.06,0,0-.06A.08.08,0,0,1,109.74,59.28Zm-.25,1.42s0-.07,0-.09a.14.14,0,0,0,0-.06Zm.12-1.67-.06,0Zm.13.25s0,0,0,0,0,0,0,0,0,0,0,0a.05.05,0,0,0,0,0Zm.06-.28s0,0,0,.09a.08.08,0,0,1,0-.05S109.8,59,109.8,59Zm.29-.89a.12.12,0,0,1,0-.09s0,0,0,0,0,0,0,0-.07,0-.08,0S110.11,58.11,110.09,58.11Z"/><path class="cls-1" d="M114.39,63.64v.07a.41.41,0,0,1-.13.41h0l-.06.06a.53.53,0,0,0-.13.16l-.13.22a1.36,1.36,0,0,0-.19.27.53.53,0,0,1-.25.24v0a.55.55,0,0,0-.19.18,1,1,0,0,1-.09.17l-.07.13a.22.22,0,0,1-.15.09c-.13,0-.19,0-.19-.09a.31.31,0,0,1-.26.16.24.24,0,0,1-.19.22.49.49,0,0,1-.28.12c-.23,0-.26,0-.1-.09h-.12a.37.37,0,0,0,0,.25.19.19,0,0,0-.13,0c-.13,0-.19,0-.19,0h-1.83a1.07,1.07,0,0,1-.32,0l-.13-.19a6.16,6.16,0,0,1,.21-1,5.46,5.46,0,0,1,.3-.79s0,0,0-.1a.43.43,0,0,1,.05-.16c.08-.12.16-.26.25-.42s.18-.32.28-.49v0a.57.57,0,0,1,.08-.19l.11-.16a.4.4,0,0,0,.1-.17c0-.08,0-.14.06-.21l.32-.52a3.5,3.5,0,0,0,.25-.52l.51-.76-.57.06a2,2,0,0,1-.35.05l-.38,0a1.58,1.58,0,0,1-1-.26l0,0v-.06s0,0,0,0,0,0,0,0l-.06-.16a.19.19,0,0,1,.08-.14.36.36,0,0,1,.2-.11c.19,0,.31,0,.35-.1l-.32-.06a.45.45,0,0,1-.22-.1l-.35-.06q-.09,0,.54,0s0,0,0,0l0,0v0c0-.05,0-.09.1-.13a.48.48,0,0,1,.28-.22l.1-.07h.17a.44.44,0,0,1,.18,0c.29,0,.62-.11,1-.19a6.69,6.69,0,0,0,1-.35l.47-.13,2.1-3.13c.73-1.07,1.47-2.1,2.23-3.09l.54-.76c.19-.28.38-.53.57-.76s.36-.52.57-.79.41-.56.6-.86h0l.41-.41c.09-.12.19-.27.32-.42a2.19,2.19,0,0,0,.31-.59,1.32,1.32,0,0,1,.35-.19.42.42,0,0,1,.16-.09.34.34,0,0,0,.16-.1l.28-.19a.65.65,0,0,1,.35-.12h.32a1.63,1.63,0,0,1,.44-.08.35.35,0,0,1,.31.08,1.1,1.1,0,0,1,.76,0h.19l.19,0c.09,0,.2.11.35.35l0,0a.59.59,0,0,0,.41,0,2.17,2.17,0,0,1,.51,0,.3.3,0,0,1,.31.17,1.86,1.86,0,0,1,.19.37,2.66,2.66,0,0,1,.1.63c0,.27,0,.52.06.73a.43.43,0,0,0,0,.11.34.34,0,0,1,0,.11v.88a10.38,10.38,0,0,0-.06,1.09v1.09c0,.24,0,.47,0,.71a5.67,5.67,0,0,1-.1.72,5.2,5.2,0,0,0-.07.64c0,.2,0,.42,0,.65h.38l.35,0,.77-.09a2.67,2.67,0,0,1,.78,0,.12.12,0,0,1,.12.06l.05,0h.05l.25.1a.21.21,0,0,1,.16.22l-.13.19-.22-.16a.53.53,0,0,0,.16.2.13.13,0,0,1,0,.18l-.13,0v.06h-.06V56a.19.19,0,0,1,0,.07.13.13,0,0,0,0,.06v.06s0,0,0,.07,0,0,0-.07l-.07.32a.09.09,0,0,1-.06,0l0,0h-.08l0,0h-.08l-.07,0a.25.25,0,0,1-.16-.06s-.07,0-.09,0h-.06l-.15,0a.22.22,0,0,1-.14,0s0,0,0,0,0,0,0,0a.65.65,0,0,0-.38.08,3.4,3.4,0,0,1-.38.24l-.35.09,0,.13a.17.17,0,0,0-.13,0,.24.24,0,0,1-.09.08v0l0,.07a.2.2,0,0,1,0,.09.17.17,0,0,0,0,.07v.06a1.24,1.24,0,0,0-.07.39,1.52,1.52,0,0,0,.07.43.15.15,0,0,1,0,.08.15.15,0,0,0,0,.08l-.13.13v1.7c0,.07,0,.07,0,0a.41.41,0,0,1,0-.19.56.56,0,0,0-.06.22.64.64,0,0,1-.12.32v0l0,.06c0,.11,0,.22-.16.32,0-.08,0-.18,0-.3s0-.19,0-.24a1.38,1.38,0,0,1,0-.26V60h0a.92.92,0,0,0,0-.19.78.78,0,0,1,0-.16,2.86,2.86,0,0,1-.06-.51h0c0,.05,0,.08,0,.1a.14.14,0,0,1,0,.06.38.38,0,0,0,0,.16s0,.12-.13.22a.38.38,0,0,1-.12-.32v.26a2,2,0,0,0,0,.39,1.16,1.16,0,0,1-.06.4v.06h0v.6a.08.08,0,0,0,0,.05s0,0,0,.08a2.43,2.43,0,0,1,0,.85s0,.06-.09.13a.78.78,0,0,0,0,.27,1.14,1.14,0,0,0,0,.23l.06.41a.53.53,0,0,1,.13-.28l0,0c0-.07.07-.15.19-.25v.28a.21.21,0,0,1,.1.19.24.24,0,0,1-.07.19.7.7,0,0,0,0,.16.5.5,0,0,1,0,.12,1.86,1.86,0,0,1,0,.41,1,1,0,0,1-.08.35h-.06a1.22,1.22,0,0,0,0,.32c0,.08,0,.19,0,.33a2.12,2.12,0,0,1-.08.46l-.06-.16v.16s0,.07,0,.08,0,0,0,0h-.1c-.08,0-.13.17-.13.45a.24.24,0,0,0-.18.06l-.1.1.13.09a.17.17,0,0,1,0,.17.82.82,0,0,0,0,.18.44.44,0,0,0,0,.19l-.16-.16c0,.13,0,.18,0,.16s-.1,0-.21.16h-.44a2,2,0,0,1-.3-.3.55.55,0,0,1-.09-.23,1.29,1.29,0,0,1,0-.28,3.42,3.42,0,0,0,0-.52l-.13-.63c-.08-.8-.13-1.64-.14-2.5s0-1.73,0-2.59v-1c0-.32,0-.64,0-1a.55.55,0,0,0-.44,0l-.16,0h-.19a6.14,6.14,0,0,0-.85.21l-.92.27h-.06l-.1,0v.06a1.15,1.15,0,0,1-.09-.22,2,2,0,0,0-.7.32v-.07c-.08.13-.16.13-.25,0a.07.07,0,0,1-.06.08l-.1,0a.57.57,0,0,1-.41.12s0,0-.06,0l-.11.06-.14.06-.18,0a.39.39,0,0,0-.2.08l-.19.12L117.7,59l.13-.06-.44.16a.29.29,0,0,1-.13.09s-.06.08-.12.23a1.22,1.22,0,0,0-.12.19,1.07,1.07,0,0,0-.07.19.71.71,0,0,0-.32.47l-.22.19a.57.57,0,0,0,.22,0,.72.72,0,0,0-.21.23,1.28,1.28,0,0,1-.11.24l-.2.27a1.34,1.34,0,0,1-.24.24v0a1,1,0,0,0-.19.41v-.07a1,1,0,0,1-.12.38c-.11,0-.16,0-.16,0l-.07.22a.76.76,0,0,0-.27,0,.16.16,0,0,0-.11.14l0,0,.06,0,.09,0v.11a.23.23,0,0,0,0,.14A1.38,1.38,0,0,1,115,63a2.67,2.67,0,0,1-.28.32Zm-2.15,2a.12.12,0,0,0,0-.09h0l0,0Zm.6-.19,0,0h0Zm.63-1.07-.06.22-.16.22h.09l0,.13.29-.47v-.1Zm1.11-1.9a0,0,0,0,1,0,0s0,0,.06-.06a.8.8,0,0,1,.22-.54,2.39,2.39,0,0,0-.28.35l-.29.44a.15.15,0,0,0-.09.16h-.13v-.1a.23.23,0,0,0,0,.13.86.86,0,0,0-.25.48.4.4,0,0,0-.21.14.89.89,0,0,0-.08.17l.07-.12v.25l0-.13a1.31,1.31,0,0,0,.25-.33c.06-.12.14-.26.22-.43h.13V63l.16-.1v-.09l-.07,0,.1-.16A.38.38,0,0,1,114.58,62.47Zm-1,.54c0,.09,0,.13-.07.13v.06l0,0a.5.5,0,0,0,0-.13.19.19,0,0,1,0-.09Zm.44.85v.07l.09-.19v0a.17.17,0,0,0-.06.11S114.06,63.86,114,63.86Zm.16-2.81a.18.18,0,0,0-.1.16,0,0,0,0,1,0,0A.17.17,0,0,1,114.2,61.05Zm-.07,1.49a.12.12,0,0,0,0,.09A.12.12,0,0,1,114.13,62.54Zm.1-.16a.19.19,0,0,1-.07.08s0,0,0,.08a.13.13,0,0,1,0-.07A.35.35,0,0,0,114.23,62.38Zm.35-.51.09-.12v-.07Zm.15-.31.16-.13.06-.22Zm.22-1.27a.22.22,0,0,0-.06.13l.13-.13Zm.23-.31h0v0h0Zm.53.79-.22.3a3.15,3.15,0,0,0-.22.33l.06,0,.23-.22h-.07a.5.5,0,0,0,.13-.19A.66.66,0,0,1,115.71,60.77Zm3.51-4.05,1.88-.43a15,15,0,0,0,1.91-.55,8.77,8.77,0,0,0,.07-1.15c0-.39,0-.8,0-1.22a3.8,3.8,0,0,1,0-.62,3.74,3.74,0,0,0,0-.61.85.85,0,0,1,0-.29v-.14a.11.11,0,0,0-.09-.11s-.1.08-.3.36-.39.54-.56.75l-.66.82-.08.16a.22.22,0,0,0,0,.09.56.56,0,0,0-.24.24,2.09,2.09,0,0,1-.21.3l-.22.25v0a.87.87,0,0,1-.12.35.74.74,0,0,0-.32.31l-.44.48-.16.34a.66.66,0,0,1-.11.16.33.33,0,0,0-.08.16l-.17.14A1.25,1.25,0,0,0,119.22,56.72Zm2.56.82v0l0,.13v-.06l0,0v-.07Zm2.4,6s0,0,0,0Zm.29-1.52a.37.37,0,0,0,0,.15v.11s.06-.07.06-.19,0,0,0,0S124.47,62.08,124.47,62.06Zm.16-2.08v.09l.09,0c0-.15,0-.28,0-.41a1.72,1.72,0,0,1,.08-.38.09.09,0,0,1-.07,0,.09.09,0,0,0-.06,0s-.06,0,0,0,0,0,0,0v.19a.5.5,0,0,1,0,.19.49.49,0,0,0,0,.12A.58.58,0,0,1,124.63,60Zm.15.91a.28.28,0,0,0,0-.08.23.23,0,0,1,0-.14l0,.06c0,.05,0,.07,0,.08a.15.15,0,0,0,0,.08l-.06.34a2,2,0,0,0,0,.36l.06,0v-.07a.33.33,0,0,1,0-.15A2,2,0,0,1,124.78,60.89Z"/><path class="cls-2" d="M137,68.86v.19c-.24,0-.31,0-.24.06s.1.08.08.1a.8.8,0,0,1-.05.23.25.25,0,0,1-.2.18,3.27,3.27,0,0,1-.32-.19,1.33,1.33,0,0,0-.47-.19l-1-.14q-.5-.09-.6-.27a2.4,2.4,0,0,1-.06-.48,2.53,2.53,0,0,1,0-.38,1.35,1.35,0,0,0,0-.2v-.11l.19-1a3.94,3.94,0,0,1,.08-.51c0-.13.07-.25.11-.38s.19-.57.32-.88a4.28,4.28,0,0,0,.25-1,6.67,6.67,0,0,1,.37-1.09,9.5,9.5,0,0,0,.36-1.06l.44-1.14a1.83,1.83,0,0,0,.14-.48c0-.19.07-.36.11-.53l.41-.76.57-1.3v.07a2.16,2.16,0,0,0,0-.32.67.67,0,0,1,.08-.29,2.08,2.08,0,0,0,.17-.36l.18-.39c.1,0,.16-.09.17-.15l.05-.23c.08-.13.19-.31.32-.54a3.1,3.1,0,0,0,.25-.57,3,3,0,0,0,.12-.43,2,2,0,0,1,.16-.42v0a1.29,1.29,0,0,1,.11-.3,1.42,1.42,0,0,0,.11-.18l.29-.56c.19-.43.38-.84.57-1.25s.4-.83.63-1.25l.32-.51a.31.31,0,0,1,.09-.22v-.16a1,1,0,0,0,.22-.36,4,4,0,0,0,.16-.43,3.48,3.48,0,0,0,.22-.36,1.4,1.4,0,0,0,.13-.33l.31-.6c.05-.15.08-.27.11-.37a1.88,1.88,0,0,1,.18-.33,4.69,4.69,0,0,0,.54-.84c.16-.32.31-.63.44-.93s.28-.53.47-.84l.48-.77v-.16a.54.54,0,0,0,0-.22v-.13a3,3,0,0,0,.36-.34,2.16,2.16,0,0,0,.27-.38l.89-.29.22.1a.63.63,0,0,0,.22.09,1.37,1.37,0,0,1,.28.1l.79.15.41.48.35.38.38.63a4.94,4.94,0,0,1,.27.47,2.48,2.48,0,0,1,.17.48,6.79,6.79,0,0,1,.1.93,1.23,1.23,0,0,1-.22.87,2.8,2.8,0,0,1-.27.47,2.44,2.44,0,0,0-.27.45c-.15.17-.27.32-.38.47a1.3,1.3,0,0,0-.22.51,1,1,0,0,0-.22.31c-.07.15-.12.24-.16.26l-.25.53a.89.89,0,0,1,0,.11.89.89,0,0,0,0,.15l-.5.88-.54.92v0c0,.14-.07.24-.08.3a.59.59,0,0,1-.08.2.68.68,0,0,0-.26.24.47.47,0,0,0,0,.24,1.3,1.3,0,0,0-.19.3,4.3,4.3,0,0,1-.29.45l-.22.51c.09,0,.13,0,.13-.13l.6-.5a3.42,3.42,0,0,0,.54-.54l.28-.22.63-.55.7-.59,1.14-1,.34-.25.92-.73c.32-.25.64-.49,1-.72l.79-.64.54-.44.39-.33a3.2,3.2,0,0,1,.43-.3l.76-.54.41-.22a1.45,1.45,0,0,1,.35-.35,2.88,2.88,0,0,1,.38-.22.36.36,0,0,0,.06-.11,1.41,1.41,0,0,0,.06-.27l.27-.09a.35.35,0,0,0,.11-.07l.16-.12a.61.61,0,0,1,.54-.41,1.19,1.19,0,0,1,.73.09V45a1.77,1.77,0,0,0,0,.22c0,.09,0,.16,0,.22s0,.27,0,.48a1.13,1.13,0,0,0,.18.57,2.88,2.88,0,0,1,.06.79c0,.08,0,.17,0,.27a1.72,1.72,0,0,0,0,.2,2.38,2.38,0,0,0,0,.51.34.34,0,0,0,0,.09.58.58,0,0,1,0,.1l-.22.41-.32.44a2.44,2.44,0,0,0-.41.19l-.47.25-.26.22a.69.69,0,0,0-.57.32,1.59,1.59,0,0,0-.31.17l-.22.18a8.84,8.84,0,0,0-1.2.85c-.4.34-.78.66-1.14,1A13,13,0,0,1,151,53.46c-.47.34-.92.68-1.34,1v0l-.25.26a2.45,2.45,0,0,0-.24.27,1,1,0,0,1-.3.26.09.09,0,0,1,0,.07,1.51,1.51,0,0,1-.22.28l-.18.19c0,.07-.1.1-.14.1a8.37,8.37,0,0,0,.37.88,5.15,5.15,0,0,0,.25.48l.22.39c.07.14.18.36.33.68l.29.7h0l.19.19a.18.18,0,0,1,.1.12.28.28,0,0,0,.12.16q.39.8.78,1.47c.26.45.53.89.81,1.31a1.07,1.07,0,0,0,.07.19,1.48,1.48,0,0,1,.11.29l-.06.09-.12-.25a.82.82,0,0,1-.32-.44c-.15-.05-.23-.11-.25-.19a1.53,1.53,0,0,0,.17.36l.14.21a4.63,4.63,0,0,1,.38.6h-.06l.22.15c-.11.11-.18.13-.22.05a.41.41,0,0,1-.06-.2.38.38,0,0,1-.12-.1l-.11-.13v0l-.22-.19a1.77,1.77,0,0,0-.12-.37,1.15,1.15,0,0,0-.22-.23.64.64,0,0,1-.13-.18.84.84,0,0,0-.13-.17l-.09-.1a.55.55,0,0,0-.19-.06l0,0s0,0-.06-.06v.15l-.16-.15a.45.45,0,0,1-.13-.23l-.06.1c.06.13.14.27.22.44a1,1,0,0,0,.25.35.22.22,0,0,0,.07.09.53.53,0,0,1,.06.13c.13,0,.2.11.22.32h0l.35.34s0,0,0,0,0,0,0,.06c.15.21.29.45.44.71s.27.48.38.65l-.13.09-.14-.11-.11-.11,0,0a.63.63,0,0,1,0,.11.14.14,0,0,1,.13.06c.19,0,.33.16.44.41l.25.38.48.54v0a2.84,2.84,0,0,0,.39.39,3.22,3.22,0,0,1,.49.59.78.78,0,0,1-.41-.06s0,0,0,0l.13.12a6.65,6.65,0,0,0,.28.62c.08.16.18.35.28.58a.32.32,0,0,1-.17.3,4.34,4.34,0,0,0-.46.37c-.17.12-.24.21-.22.25l-.17,0h-.08l0,0a.28.28,0,0,1-.22,0h-.16a.35.35,0,0,0-.16,0,.2.2,0,0,1-.29,0l-.22-.1-.23-.14a.84.84,0,0,1-.24-.43h0l-.25-.19.06.07-.44-.16-.32-.16a2.71,2.71,0,0,0-.38-.6,2.48,2.48,0,0,0-.44-.41c-.4-.48-.74-.94-1-1.36s-.54-.84-.77-1.25-.46-.84-.7-1.28-.49-.91-.79-1.42l-.25-.6a1.91,1.91,0,0,0-.24-.41,1.59,1.59,0,0,1-.23-.57c-.11-.17-.21-.36-.32-.57a4.28,4.28,0,0,0-.32-.54l-.34-.6h-.1a.33.33,0,0,1-.14.1.62.62,0,0,0-.21.22l-.3.27-.23.23-.1.1-.09.13a.13.13,0,0,0,0,.09,1.13,1.13,0,0,0-.36.22l-.14.19a1.53,1.53,0,0,1-.38.54l-.19.12a.38.38,0,0,0-.25.23.78.78,0,0,0-.35.57,1.31,1.31,0,0,1-.21.34,1,1,0,0,1-.39.32h0a.58.58,0,0,0-.36.3.44.44,0,0,0-.08.39,1.44,1.44,0,0,0-.33.4,1.87,1.87,0,0,0-.21.43l-.16.28-.19.35-.06,0s0,0,0,0,0,0,0,0a.11.11,0,0,0,.07,0l0,0a.39.39,0,0,1-.16.44.13.13,0,0,0,0,.1l-.19.44s.06,0,.06,0v.19l0,.22-.13.1a.33.33,0,0,0,0,.15.13.13,0,0,0,0,.07v.09a.45.45,0,0,1-.16.37.1.1,0,0,1-.09,0,.14.14,0,0,1,0,.11.23.23,0,0,0-.05.15A.45.45,0,0,0,139,67l-.22.6v.12a1.4,1.4,0,0,1,0,.4.71.71,0,0,1-.27.3l0,0a.58.58,0,0,0-.11.27.7.7,0,0,1-.14.3.87.87,0,0,1-.07-.35,1,1,0,0,1,.07-.38.37.37,0,0,1,0-.11.78.78,0,0,0,0-.21.62.62,0,0,1,0-.22.33.33,0,0,1,.07-.13l-.06,0v0q-.06.25-.09.42a1.39,1.39,0,0,1-.16.4l-.1.09a1.21,1.21,0,0,0-.09.29c-.07,0-.1-.06-.1-.19l-.09.19a.42.42,0,0,1-.1.17c0,.06-.14.1-.31.15V69c-.13,0-.19,0-.19,0V68.8a.28.28,0,0,1,0-.13Zm1.51-2.15c0,.13,0,.27-.06.44a.9.9,0,0,1-.13.41l.13-.16c0-.23.08-.41.11-.55a3.64,3.64,0,0,1,.11-.39,1.74,1.74,0,0,0,.1-.38q0-.22.09-.51l-.13.51Zm.38-1.2a.09.09,0,0,0,0-.07Zm.07-.7a1.66,1.66,0,0,0,0,.26v.25a.31.31,0,0,1,0-.08.46.46,0,0,0,0-.14l.31-.79-.06.09-.25.48Zm.31-.5v0l.07-.13ZM149,60.73a.5.5,0,0,0,0,.16c0-.06,0-.09,0-.09S149,60.78,149,60.73Zm.31.67.13.28.1.16v-.09a.72.72,0,0,1,0-.21,1,1,0,0,0-.08-.24h-.13Zm.51.88h-.06l.12.19.35.48a.28.28,0,0,0,0-.1s0-.05,0-.09Zm.28.19s0,0,.07,0h0l-.1-.13Zm.73-.91s0,.06,0,.06v-.06Zm.32,2.3s0,.07,0,.07l.06,0Zm.28.42,0,0,0,0s0,0,.08.05l-.16-.09Z"/><path class="cls-2" d="M154.18,64.81a.29.29,0,0,1-.27-.19.73.73,0,0,1,0-.33,2.7,2.7,0,0,1,.09-.36,3.21,3.21,0,0,0,.1-.35c.08-.23.16-.46.23-.7s.17-.46.27-.69a1.3,1.3,0,0,1,.11-.35,2.3,2.3,0,0,0,.15-.35c.29-.88.62-1.73,1-2.56s.73-1.6,1.13-2.34a1.07,1.07,0,0,1,.07-.15.38.38,0,0,1,.09-.13,3.89,3.89,0,0,0,.18-.41,1.27,1.27,0,0,1,.23-.41c.42-.76.87-1.51,1.33-2.26s.93-1.5,1.39-2.26c.23-.4.46-.8.7-1.2s.46-.81.69-1.24a1.3,1.3,0,0,1,.32-.69l.54-.6a.45.45,0,0,0,.26-.08.3.3,0,0,1,.24,0,.49.49,0,0,1,.19.06.87.87,0,0,1,.19.13,2.22,2.22,0,0,1,.44.43l.41.49c1.14-.21,2.25-.43,3.34-.65a19.23,19.23,0,0,1,3.52-.36,3.09,3.09,0,0,1,.53,0l.55.05a.67.67,0,0,0,.17.14s.08.07.14.17a.52.52,0,0,0-.17.21,1.09,1.09,0,0,0,.05.33c-.11,0-.17,0-.18.1a1.41,1.41,0,0,0,0,.22.2.2,0,0,1-.13,0,.08.08,0,0,0-.09,0,1.34,1.34,0,0,0-.08.38.57.57,0,0,1-.18.38q.08.23,0,.27a.43.43,0,0,0-.16.2.23.23,0,0,0-.12.08.2.2,0,0,1-.16,0,2.36,2.36,0,0,1-.87.43,8.84,8.84,0,0,1-1,.17l-.24.08a.76.76,0,0,1-.27.05h-.32l-.38.06-.38.09-.94.21a7.54,7.54,0,0,0-.89.27l-.35.11-.34.11a5.35,5.35,0,0,1-.79.19A.56.56,0,0,0,164,52a.15.15,0,0,0-.08.08.08.08,0,0,1-.08.05,4.09,4.09,0,0,1-.77,1.29,8.09,8.09,0,0,0-.87,1.21c.71-.17,1.47-.32,2.26-.45s1.6-.24,2.45-.34c.42-.05.85-.08,1.28-.11a3.69,3.69,0,0,1,1.28.11c0,.08,0,.13.05.15a.12.12,0,0,1,0,.1s-.08,0-.11,0a.2.2,0,0,0-.11,0,.92.92,0,0,0-.27.16,1.14,1.14,0,0,1-.23.15s-.07,0-.07,0,0,0-.06.06h-.09a.9.9,0,0,0-.21.19.28.28,0,0,0-.08.25h.4a1.23,1.23,0,0,0,.36-.06s-.09.06-.19.06v.44a.71.71,0,0,1-.22,0c-.09,0-.12.05-.1.11a.32.32,0,0,1-.22.07.73.73,0,0,0-.22,0,.12.12,0,0,0,.08.12.14.14,0,0,1,.08.13,3.05,3.05,0,0,1-.54.14,1.72,1.72,0,0,0-.54.18.13.13,0,0,0,0,.08s0,0,0,.07a1.52,1.52,0,0,0-.55,0l-.62.12a2.85,2.85,0,0,0-1.32.41l-.76.3a4.91,4.91,0,0,1-.82.24l-.6.14a2.88,2.88,0,0,1-.54.11h-.49l-.55,0h-.27a.6.6,0,0,0-.27.07,4.22,4.22,0,0,0-.43.64c-.11.22-.24.45-.36.68s-.2.35-.29.52-.15.36-.22.53-.24.59-.35.9-.22.61-.34.93c0,.11,0,.18,0,.22s.06.13,0,.25a1.63,1.63,0,0,1,.44,0,1.17,1.17,0,0,0,.41-.08l.6-.19,1.55-.57a.19.19,0,0,0,.13-.06c.5-.15,1-.32,1.58-.51l1.67-.57c.34-.1.68-.22,1-.33s.69-.23,1.05-.33l.36-.1.43-.09,1.23-.19a3.94,3.94,0,0,1,.52,0c.2,0,.29.1.27.31a.11.11,0,0,1-.06.1s0,.06,0,.12c-.11,0-.17,0-.19,0s.06.05.11,0,.09,0,.11,0,0,.06,0,.06l-.11,0h.19a.1.1,0,0,1-.09.06.21.21,0,0,0-.13.07s-.11-.07-.28-.07c0,.11,0,.16.09.16a.21.21,0,0,0,.16-.06.23.23,0,0,0,.28.06c.07,0,.08,0,0,0s-.05,0,0,0h.15c0,.06,0,.11,0,.14a.2.2,0,0,0,0,.11.48.48,0,0,0-.33.17.4.4,0,0,1-.36.14.16.16,0,0,0,.06.12.18.18,0,0,0,.16,0l-.08.05a.15.15,0,0,0-.08.08s0,0,.06,0,.07,0,.07,0a.52.52,0,0,0-.35.1c0,.06.11.07.22,0s.18,0,.22,0a.25.25,0,0,1-.19.11l-.25.05a4.41,4.41,0,0,0-.47.14l-.38.14a6,6,0,0,0-.64.21l-.53.23s.09,0,.15,0a.26.26,0,0,1,.19,0,.24.24,0,0,1-.17.07l-.21,0s0,0,0,0h0a2,2,0,0,0-.6.15l-.54.26a.28.28,0,0,0,.29,0,.37.37,0,0,1,.31-.08h0s-.05,0-.05,0a.28.28,0,0,0,.18,0,.56.56,0,0,1,.2,0,1.35,1.35,0,0,1-.42.24l-.5.14s0,.05.08,0,.08,0,.08,0a.22.22,0,0,1-.19.05.38.38,0,0,0-.19,0c-.17,0-.35.1-.57.18l-.6.2a1.5,1.5,0,0,1-.22.11l-.19.11.26-.06.12-.08s.08,0,.1,0a.86.86,0,0,1-.22.12l-.23.1s-.06,0-.06,0,0,0,0,0a.54.54,0,0,1-.41.16.52.52,0,0,0-.41.19.47.47,0,0,0-.3.1l-.3.19a2.27,2.27,0,0,0-.59.19c-.18.08-.36.18-.55.28a1.29,1.29,0,0,1-.24.13l-.3.12-.79.35-.42.11a2.68,2.68,0,0,0-.43.14l-.62.27a6.65,6.65,0,0,1-.61.27,3.66,3.66,0,0,1-.76.13,1.48,1.48,0,0,1-.76-.13.61.61,0,0,1-.18-.09.32.32,0,0,0-.2-.07,1,1,0,0,0-.36-.06.25.25,0,0,1-.27-.19A1.24,1.24,0,0,1,154.18,64.81ZM164.8,63.2s0,0,0,0l.08-.06s0,0-.05,0Zm.26-.13a.26.26,0,0,1,.15-.07c.07,0,.11,0,.13-.08a.28.28,0,0,0-.2,0C165.06,63,165,63,165.06,63.07Zm0,.07a.5.5,0,0,1,.16,0c.06,0,.09,0,.09-.08a.2.2,0,0,1-.14.06A.12.12,0,0,0,165.09,63.14Zm1-.32a.17.17,0,0,0,.13-.09.09.09,0,0,1-.07,0S166.15,62.78,166.13,62.82Z"/><path class="cls-2" d="M173.56,48.28a.3.3,0,0,1,.16.25h.09c0,.09,0,.13,0,.13a.18.18,0,0,1,.1.06.07.07,0,0,0,0,.05s0,0,0,.08a12.48,12.48,0,0,1,1.39,1.72l1.2,1.82a1.33,1.33,0,0,0,.32.7,1.29,1.29,0,0,1,.31.63v.22a.19.19,0,0,0,.1.16.36.36,0,0,0,0,.19l.11.12s0-.08,0-.12a.16.16,0,0,1,0-.16.17.17,0,0,1,.06.11.19.19,0,0,0,0,.11,10.39,10.39,0,0,0,.74-1,8.29,8.29,0,0,1,.77-1.05,6.55,6.55,0,0,1,.67-1,9.59,9.59,0,0,0,.69-1,1.35,1.35,0,0,0,.26-.33,1.46,1.46,0,0,1,.22-.33.12.12,0,0,1,.12-.1,4.7,4.7,0,0,1,.38-.57c.15-.19.31-.37.48-.56s.21-.36.31-.57.21-.4.32-.57a.34.34,0,0,1,.09-.27.31.31,0,0,0,.1-.27l.2-.14a1.88,1.88,0,0,0,.24-.18,2.86,2.86,0,0,1,.44-.25.45.45,0,0,1,.34.06l.26.26a.44.44,0,0,0,.16.17.5.5,0,0,1,.16.11,3.16,3.16,0,0,1,.33.62c.12.26.22.49.3.68a.8.8,0,0,0,.07.28.39.39,0,0,0,.09.19,4.31,4.31,0,0,0,.13.54,1.22,1.22,0,0,1,0,.47,1.28,1.28,0,0,1-.29.57,5.06,5.06,0,0,1-.37.41,3.37,3.37,0,0,1-.29.37c-.11.11-.21.23-.32.36a1.71,1.71,0,0,0-.11.14.38.38,0,0,1-.14.14,2.43,2.43,0,0,1-.38.48,2.61,2.61,0,0,0-.41.57.66.66,0,0,0-.31.35.94.94,0,0,1-.32.37s0,.07,0,.07,0,0,0,.06c-.51.74-1,1.48-1.47,2.23a22.25,22.25,0,0,1-1.54,2.13c0,.05,0,.07,0,.08s0,0,0,.08l-.41.52a.62.62,0,0,1-.08.1l-.09.09a6.07,6.07,0,0,0-.4.52,1.76,1.76,0,0,1-.24.42,2.43,2.43,0,0,1-.3.34s-.06,0-.06,0,0,0-.06,0l-.07.06a.29.29,0,0,0-.28.25.34.34,0,0,1-.13.29.62.62,0,0,0-.19.25.24.24,0,0,0,0,.13l-.23.19a2.82,2.82,0,0,1-.42.83,5.69,5.69,0,0,0-.49.78q0,.09,0,.09a.11.11,0,0,0-.06.11.65.65,0,0,1,0,.18s-.05,0,0,0,0,0,0,0-.06,0-.06.13a1.73,1.73,0,0,0-.35.72l-.09.07a4.32,4.32,0,0,1-.21.38,1.26,1.26,0,0,0-.17.37,1.51,1.51,0,0,0-.32.56.81.81,0,0,1-.35.46s-.05.07,0,.09a.33.33,0,0,1-.08-.11.15.15,0,0,0-.08-.08.24.24,0,0,0-.09.08.27.27,0,0,1-.1.08,3.38,3.38,0,0,0,.32-.76,2.38,2.38,0,0,0-.33.59,1,1,0,0,1-.46.49.17.17,0,0,1,0-.15.25.25,0,0,0,0-.17,1.18,1.18,0,0,0-.22.36c-.06.16-.11.32-.16.49s-.13.06-.14.11a.55.55,0,0,1-.08.18.2.2,0,0,1,0-.18,1.67,1.67,0,0,0,.06-.2c-.06,0-.09.09-.09.22s-.07,0-.1.13a.19.19,0,0,1-.15.15.68.68,0,0,1,0-.19.22.22,0,0,0,0-.19.19.19,0,0,1,.09-.12s0-.05,0-.1a.36.36,0,0,0-.06.11c0,.06-.05.06-.1,0a.33.33,0,0,1-.12.32c-.05,0-.06,0-.05,0s0,0-.05,0a.75.75,0,0,0-.17.3.25.25,0,0,1-.21.21s-.06,0,0,.09,0,.07-.05.07a.07.07,0,0,1-.07-.08.11.11,0,0,0-.06-.11.37.37,0,0,1-.36,0l-.33-.15a1.08,1.08,0,0,1,0-.88c.12-.28.22-.53.3-.76a.28.28,0,0,0,0-.13,25.16,25.16,0,0,1,1.09-2.27c.39-.72.75-1.45,1.06-2.18,0,0,.06,0,.06,0s0,0,.07,0a.72.72,0,0,1,.12-.25,1,1,0,0,1,.18-.36,2.18,2.18,0,0,0,.2-.34c.28-.48.47-.83.59-1.05s.21-.43.3-.6a6.61,6.61,0,0,1,.3-.59c.11-.21.32-.56.62-1a6.32,6.32,0,0,0-.56-.6,4.3,4.3,0,0,1-.55-.64,7.17,7.17,0,0,1-.52-.71c-.16-.24-.32-.48-.49-.71Q172.9,53,172,51.79a13.69,13.69,0,0,1-1.52-2.53.39.39,0,0,1-.09-.17.57.57,0,0,0-.13-.24l-.08-.13a.19.19,0,0,1,0-.12s0-.07,0-.13.08-.13.13-.21l.14-.18c0-.06.06-.09.06-.12a.41.41,0,0,0,0-.11.31.31,0,0,1,0-.11.29.29,0,0,1,.13-.25.73.73,0,0,0,.35,0l.47-.12.47-.13a2.09,2.09,0,0,1,.38,0s0,.06.05,0,0,0,0,0a1.14,1.14,0,0,1,.53.14,1.6,1.6,0,0,1,.45.3c0,.06-.06.09-.1.08l-.13,0v.1c0-.07,0-.1-.09-.1s0,.14.08.15.17.06.17.17,0,0,0,0,0,0,0-.07a.26.26,0,0,1,.11.15.13.13,0,0,1,0,.17c0,.06,0,.1.12.1l0,0c0,.07,0,.11,0,.13a.18.18,0,0,1,.12.05.18.18,0,0,0,.14,0,.54.54,0,0,0-.07-.13A1.46,1.46,0,0,0,173.56,48.28Zm-.25,15.81a3.26,3.26,0,0,0,.2-.43c.05-.14.11-.28.18-.43a6.59,6.59,0,0,1,.47-.77,3.08,3.08,0,0,0,.41-.81.29.29,0,0,0-.16.21.27.27,0,0,1-.19.2,1.31,1.31,0,0,1-.2.48,1.06,1.06,0,0,0-.21.44.94.94,0,0,0-.22.35.79.79,0,0,1-.25.34c0,.11,0,.17,0,.19l-.1.13s0-.05-.05,0,0,0-.07,0l0,0v.1a.57.57,0,0,0,.13-.08S173.26,64,173.31,64.09Zm0,1.58-.26.47a.36.36,0,0,0,.19-.2C173.26,65.86,173.29,65.77,173.31,65.67Zm-.07-.48a0,0,0,0,0,.07,0v-.06a.12.12,0,0,0,.08-.14.65.65,0,0,1,0-.18l.11-.12a.15.15,0,0,1,.14-.07s0-.11.13-.22a.78.78,0,0,0,0-.14.14.14,0,0,1,.08-.14.12.12,0,0,1,0,.09s0,.06,0,.1.08-.1.05-.18a.12.12,0,0,1,0-.17s0,.06,0,.06,0,0,0,.07a.52.52,0,0,0,.22-.19.59.59,0,0,1,.19-.23,6.54,6.54,0,0,0-.3.59,3.38,3.38,0,0,1-.34.55c0,.09,0,.13-.12.13a.24.24,0,0,1-.07.19s0,.1,0,.19a.22.22,0,0,1-.07.09s0,.06,0,.1a.28.28,0,0,0,.16-.16l.06-.19a1.42,1.42,0,0,1,.13-.25.79.79,0,0,0,.09-.26,5.05,5.05,0,0,0,.79-1.48c.05,0,.07,0,.07-.06a.1.1,0,0,1,.06-.07c0-.1,0-.16.06-.16a.86.86,0,0,1,.21-.39.46.46,0,0,0,.08-.43l.11-.06a.22.22,0,0,0,.08-.13.26.26,0,0,0,.06-.25.33.33,0,0,0-.16.08l-.15.11a.37.37,0,0,1,.09-.21c.06-.07,0-.14-.06-.2-.3.61-.61,1.22-1,1.82s-.65,1.21-.95,1.85a.27.27,0,0,1-.06.17.14.14,0,0,0,0,.17s.07,0,.09-.08Zm.73-.38a1.59,1.59,0,0,1-.16.32c-.06.1-.11.21-.16.31A1.12,1.12,0,0,0,174,64.81Zm.29-3.35s0-.07,0-.09a.11.11,0,0,0,0-.1.53.53,0,0,0-.29.48.25.25,0,0,0,.08-.15C174.12,61.55,174.17,61.5,174.26,61.46Zm.18,3.16a.63.63,0,0,0,.21-.27.38.38,0,0,0,0-.33.1.1,0,0,1-.07.1s0,.06,0,.12-.06,0-.06,0a1.22,1.22,0,0,1-.22.44.77.77,0,0,0-.19.44l.14-.25A2,2,0,0,0,174.44,64.62Zm.1-1a1.53,1.53,0,0,1-.19.45,1,1,0,0,0-.16.38,2.12,2.12,0,0,1,.24-.37A.61.61,0,0,0,174.54,63.64Zm-.16,1.52-.12.19a.2.2,0,0,0,0,.19.7.7,0,0,0,.13-.16A.27.27,0,0,0,174.38,65.16Zm1.46-3.32c0,.06,0,.1,0,.1a1.41,1.41,0,0,1,.23-.35.89.89,0,0,0,.21-.41l.06.06a.7.7,0,0,0,.22-.41s-.06,0,0,0,0,0-.05,0a1.49,1.49,0,0,0-.29.41,2.37,2.37,0,0,1-.28.44c0-.06,0-.08-.06,0s-.06,0-.1,0a1.73,1.73,0,0,1-.25.44,3.35,3.35,0,0,0-.32.44.67.67,0,0,0-.09.38l-.1.06-.24.43a1.37,1.37,0,0,0-.14.46c.21-.32.41-.63.6-1A10.55,10.55,0,0,1,175.84,61.84Zm-.7,1.74a.38.38,0,0,0-.09.13.5.5,0,0,0-.07.19.85.85,0,0,0,.18-.15c.07-.07.06-.16,0-.26s0,0,0,0,0,0,.07-.06,0,.06,0,.06a2.38,2.38,0,0,1,.23-.41,1.43,1.43,0,0,0,.24-.44.33.33,0,0,0-.2.24.37.37,0,0,1-.24.23v.1c-.09,0-.12-.06-.1-.06a1.38,1.38,0,0,1-.27.45.73.73,0,0,0-.17.46.48.48,0,0,0,.19-.25A.28.28,0,0,1,175.14,63.58Zm.19-2.66c0,.09-.09.19-.14.32s0,.21.08.25.06-.16.06-.38l.19-.3a1.43,1.43,0,0,0,.16-.3.59.59,0,0,1,.11-.08s.05,0,.05-.11a3.84,3.84,0,0,0-.27.29A1.62,1.62,0,0,0,175.33,60.92Z"/><path class="cls-2" d="M188.48,64.34a1.62,1.62,0,0,1-.6.19l0-.13.25-.09h.1l0-.13c-.07-.06-.07,0,0,.1l-.07,0c0-.1,0-.15.07-.15l-.19.06s.06,0,.12.09l-.12.07a.09.09,0,0,1,0-.07l0,.07,0,.06-.29.06h0l-.22.1a.09.09,0,0,0,0-.06l-.13,0c-.08,0-.14.06-.16,0l-.31.15a.75.75,0,0,1-.35.1h.06s0,0,.06,0l.13,0c.06,0,.09.06.06.06l-.15.1c-.07,0-.12,0-.16,0a.47.47,0,0,1-.27.13l-.24,0-.19.05a.87.87,0,0,0-.25.08l0-.1a.12.12,0,0,1-.13-.09l-.12.06s0,0,0,0,0,0,0,0l.1,0a.07.07,0,0,1-.06,0,.23.23,0,0,1-.13,0l0-.07a.37.37,0,0,0-.25.08l-.19.14a.67.67,0,0,0-.24.16,1.22,1.22,0,0,1-.14.16l-.13.13a1,1,0,0,1-.25.31.27.27,0,0,1-.16.07.51.51,0,0,1-.17.08.74.74,0,0,1-.24,0,0,0,0,0,1,0,0l-.06,0h-.07s0,0,0,0V66.3h-.09s0,0,0-.1l0,0s-.1-.08-.25-.12a.53.53,0,0,0-.28,0c-.15-.17-.21-.3-.16-.38s0-.06,0-.06h.06l.1-.1s0,0-.07,0-.12,0-.12-.06,0,0,0,0,.11,0,.11,0a.24.24,0,0,1-.19.1.13.13,0,0,1,0,.06.14.14,0,0,0,0,.06h-.31a2,2,0,0,0-.21-.26,1.17,1.17,0,0,0-.33-.24.56.56,0,0,1-.11-.17,1,1,0,0,0-.11-.21l-.16-.28a.45.45,0,0,1,0-.21l.06-.08s0,0,0-.05,0,0,0,0a.72.72,0,0,1,.26-.3,1.89,1.89,0,0,1,.37-.15l.41-.38.85-.38.29-.15.5-.29a2,2,0,0,0,.35-.12l.21-.13.15-.13.24-.12,1.83-1.14a5.54,5.54,0,0,1,.53-.3,3.51,3.51,0,0,0,.45-.3l.67-.35s0-.09.22-.22a2.75,2.75,0,0,1,.35-.22v0l.22-.13.22-.06,0-.06h.06c.17-.11.29-.18.35-.23l.19-.12.13-.05.16-.08.44-.28a.83.83,0,0,0,.27-.19c.07-.09.1-.15.08-.19s0-.07-.11-.07a.42.42,0,0,1-.18,0,.65.65,0,0,0-.54-.09l-.15,0-.16.06h-.06a.68.68,0,0,0-.19-.11c-.09,0-.13,0-.13,0l.06.06a.47.47,0,0,0-.28.09v0a.17.17,0,0,1-.14.07H189c0-.05,0-.07,0-.07s0,0,0,0a.14.14,0,0,0-.15.13h-.07l-.06,0a.23.23,0,0,1-.16.06v0h-.13s0,0-.09.06,0,0-.06,0,0,0-.1,0a.42.42,0,0,0-.16,0h-.11l-.14,0s0,0-.05,0,0,0,0,0l-.1,0-.09,0a.19.19,0,0,0-.13,0h-.16a1.68,1.68,0,0,1-.38.12h0a.1.1,0,0,1-.09-.06l-.11.1s-.06,0-.08,0h0a.22.22,0,0,0-.1.07l-.06-.07a.12.12,0,0,1,0-.09c-.05,0-.08,0-.1,0a0,0,0,0,0,0,.06H186l-.06,0a.3.3,0,0,0-.22.07l-.21.06h-.08a.13.13,0,0,1-.11-.05s-.13,0-.3.05a3,3,0,0,1-1.1.19h-.23a1.4,1.4,0,0,1-.86-.62,7.18,7.18,0,0,1-.59-1,1.26,1.26,0,0,1-.06-.24v-.17a.08.08,0,0,0,0,0,.07.07,0,0,1,0,0l0-.22v-.13a.24.24,0,0,1,0-.15,1.06,1.06,0,0,0,0-.43.81.81,0,0,1,.09-.46v0a.05.05,0,0,1,0,0,.07.07,0,0,0,0,0l.19-.25a2,2,0,0,1,.54-.7,3.1,3.1,0,0,0,.22-.51,1.28,1.28,0,0,1,.32-.44v0l.93-1,.82-.86c.27-.26.55-.52.86-.79s.67-.55,1.09-.87a2,2,0,0,0,.3-.19,1.66,1.66,0,0,0,.27-.25l.63-.47.82-.51a1.91,1.91,0,0,0,.24-.17,1.22,1.22,0,0,1,.17-.15v0l.13-.16.53-.25a3.8,3.8,0,0,0,.4-.24l.27-.21.3-.19.46-.25a1.9,1.9,0,0,1,.64-.11,7,7,0,0,1,.91,0,4,4,0,0,1,.88.14,1.78,1.78,0,0,1,.57.23v-.09A.41.41,0,0,1,195,47a1.06,1.06,0,0,0,.33.19l.19.06.25,0a.26.26,0,0,1,.19.08l.41.34.08.07a.68.68,0,0,0,.21.06.66.66,0,0,0,.15.28l0,.13.06.08s0,0,.06,0a1.41,1.41,0,0,1,0,.2,1.62,1.62,0,0,0,0,.18.52.52,0,0,0,0,.25,1.27,1.27,0,0,1-.1.52c-.06.16-.11.31-.15.46l-.16.57a.41.41,0,0,0-.1.2.62.62,0,0,1,0,.18l0,.35v.31a.45.45,0,0,1-.19.06l0,.54a1,1,0,0,0,0,.14.33.33,0,0,1,0,.18v.06s0,0,0,0,0,0,0,0v0l0,.22s-.06,0-.12,0-.08.08-.11.08v0a.18.18,0,0,1,0,.11.23.23,0,0,0,0,.11l-.16.19h0l-.05,0a.05.05,0,0,1,0,0,.3.3,0,0,0-.18.08l-.14.11-.32.12a1.29,1.29,0,0,1-.41.1,1.52,1.52,0,0,0-.34,0,.61.61,0,0,1-.45-.16l-.11,0-.11,0-.12,0-.1,0-.16-.12c-.08-.09-.12-.14-.12-.16a.57.57,0,0,1-.22-.47c0-.24,0-.44-.07-.61a.75.75,0,0,1,0-.47,2.36,2.36,0,0,0,.16-.47v0s0,0,.05-.05,0,0,0,0a1,1,0,0,1,.12-.41.49.49,0,0,1,.1-.19l0,0a0,0,0,0,0,0,0,.33.33,0,0,1,0-.1,5.9,5.9,0,0,0-.79.23,3.84,3.84,0,0,0-.69.31v0l-.19.13q-.48.29-1.14.72c-.44.3-.81.56-1.11.79l-.19.13a1.33,1.33,0,0,1-.3.25,1,1,0,0,1-.33.16l-.66.51a2.69,2.69,0,0,0-.86.6,2.42,2.42,0,0,0-.41.3c-.1.09-.21.19-.31.3s-.11.13-.13.13l-.06,0c-.09,0-.06.12.09.31h.06l.1,0h.13a3.31,3.31,0,0,0,.66,0l.84-.06.82-.1a5.77,5.77,0,0,0,.65-.11,20.47,20.47,0,0,1,2-.09h.73c.21,0,.45,0,.73.08h.12l.71.25a2.25,2.25,0,0,1,.62.32s0,0,.06,0a.11.11,0,0,1,.07,0,.65.65,0,0,0,.15.18.64.64,0,0,1,.16.17.38.38,0,0,1,0,.16s0,.06,0,.06,0,0,0,0a.51.51,0,0,1,.09.16.17.17,0,0,0,.1.13,1.71,1.71,0,0,1,.11.14c0,.05.05.1.08.14a1.05,1.05,0,0,0,.17.29.63.63,0,0,1,.14.25.53.53,0,0,1,.19.36.45.45,0,0,1-.13.4l-.18,1.39a1,1,0,0,1-.23.41,1.53,1.53,0,0,1-.31.38l-.24.21a2.23,2.23,0,0,1-.3.2.48.48,0,0,1-.13.19l-.28.13a1.17,1.17,0,0,0-.25.12c-.24.13-.46.24-.68.34l-.59.23c.19-.08.29-.13.29-.16s-.14.06-.41.23a1.3,1.3,0,0,1-.6.22l-.16.19a2.82,2.82,0,0,0-.6.27,3.82,3.82,0,0,1-.51.23l-.25.1-.07,0-.12.19-.16,0-.22.19-.29.16s0,.05,0,.09,0,0-.06,0a.41.41,0,0,1-.22,0,.13.13,0,0,0-.08,0h-.05l-.06.07s-.08,0-.19,0l.06.06h-.12a.85.85,0,0,0-.22.17c-.13.12-.2.18-.23.18s0,.09-.06.16l.13-.1ZM183.39,66a0,0,0,0,0,0,0h0Zm.1,0,.06,0h0s0,0,0,0Zm2-.6s0,0-.11.05a.56.56,0,0,0-.18,0,.54.54,0,0,1-.27.11.28.28,0,0,0-.2.08l-.44.38c.06-.11.12-.21.17-.32a.32.32,0,0,1,.17-.19l.35-.13a.22.22,0,0,0,.16,0l.22-.06Zm.15-.35,0,0-.05,0h-.06A.24.24,0,0,0,185.63,65Zm2.15-.79v0s0,0,0,0Zm5.63-10.59s0,0,0,.07Z"/></svg>