<svg version="1.2" baseProfile="tiny-ps" xmlns="http://www.w3.org/2000/svg" viewBox="0 0 1080 1920" width="1080" height="1920">
	<title>Nuevo proyecto</title>
	<defs>
		<clipPath clipPathUnits="userSpaceOnUse" id="cp1">
			<path d="M509.44 460.51C509.44 488.6 486.67 511.36 458.59 511.36C430.5 511.36 407.73 488.6 407.73 460.51C407.73 432.43 430.5 409.66 458.59 409.66C486.67 409.66 509.44 432.43 509.44 460.51Z" />
		</clipPath>
		<clipPath clipPathUnits="userSpaceOnUse" id="cp2">
			<path d="M665.66 460.51C665.66 488.6 642.89 511.36 614.81 511.36C586.72 511.36 563.95 488.6 563.95 460.51C563.95 432.43 586.72 409.66 614.81 409.66C642.89 409.66 665.66 432.43 665.66 460.51Z" />
		</clipPath>
		<clipPath clipPathUnits="userSpaceOnUse" id="cp3">
			<path d="M676.51 1121.48L396.88 1121.48C380.64 1121.48 367.48 1108.32 367.48 1092.08L367.48 675.48C367.48 659.24 380.64 646.08 396.88 646.08L676.51 646.08C692.75 646.08 705.91 659.24 705.91 675.48L705.91 1092.08C705.91 1108.32 692.75 1121.48 676.51 1121.48Z" />
		</clipPath>
		<clipPath clipPathUnits="userSpaceOnUse" id="cp4">
			<path d="M532.88 918.64L532.88 918.64C474.96 918.64 428.01 871.69 428.01 813.77L428.01 646.08L637.75 646.08L637.75 813.77C637.75 871.69 590.8 918.64 532.88 918.64Z" />
		</clipPath>
	</defs>
	<style>
		tspan { white-space:pre }
		.shp0 { fill: #c5403f } 
		.shp1 { fill: #7fd3f4 } 
		.shp2 { fill: #172c59 } 
		.shp3 { fill: #ea8088 } 
		.shp4 { fill: #ffffff } 
		.shp5 { fill: #3cc5f0 } 
		.shp6 { fill: #d1d3d4 } 
		.shp7 { fill: #f7941d } 
	</style>
	<g id="&lt;Group&gt;">
		<g id="&lt;Group&gt;">
			<path id="&lt;Path&gt;" class="shp0" d="M594.44 646.08L475.47 646.08L475.47 605.62L594.44 605.62L594.44 646.08Z" />
			<g id="&lt;Group&gt;">
				<g id="&lt;Group&gt;">
					<path id="&lt;Path&gt;" class="shp1" d="M686.16 605.62L387.23 605.62C373.5 605.62 362.36 594.48 362.36 580.74L362.36 389.79C362.36 376.06 373.5 364.92 387.23 364.92L686.16 364.92C699.9 364.92 711.03 376.06 711.03 389.79L711.03 580.74C711.03 594.48 699.9 605.62 686.16 605.62Z" />
					<g id="&lt;Group&gt;">
						<g id="&lt;Group&gt;">
							<path id="&lt;Path&gt;" class="shp2" d="M458.59 519.24C426.2 519.24 399.86 492.89 399.86 460.51C399.86 428.13 426.2 401.78 458.59 401.78C490.97 401.78 517.31 428.13 517.31 460.51C517.31 492.89 490.97 519.24 458.59 519.24Z" />
							<path id="&lt;Path&gt;" class="shp0" d="M509.44 460.51C509.44 488.6 486.67 511.36 458.59 511.36C430.5 511.36 407.73 488.6 407.73 460.51C407.73 432.43 430.5 409.66 458.59 409.66C486.67 409.66 509.44 432.43 509.44 460.51Z" />
							<g id="&lt;Clip Group&gt;" clip-path="url(#cp1)">
								<path id="&lt;Path&gt;" class="shp3" d="M487.91 519.09L456.47 519.09L456.47 401.93L487.91 401.93L487.91 519.09Z" />
								<path id="&lt;Path&gt;" class="shp3" d="M449.72 519.09L432.43 519.09L432.43 401.93L449.72 401.93L449.72 519.09Z" />
							</g>
						</g>
						<g id="&lt;Group&gt;">
							<path id="&lt;Path&gt;" class="shp2" d="M614.81 519.24C582.42 519.24 556.08 492.89 556.08 460.51C556.08 428.13 582.42 401.78 614.81 401.78C647.19 401.78 673.53 428.13 673.53 460.51C673.53 492.89 647.19 519.24 614.81 519.24Z" />
							<path id="&lt;Path&gt;" class="shp0" d="M665.66 460.51C665.66 488.6 642.89 511.36 614.81 511.36C586.72 511.36 563.95 488.6 563.95 460.51C563.95 432.43 586.72 409.66 614.81 409.66C642.89 409.66 665.66 432.43 665.66 460.51Z" />
							<g id="&lt;Clip Group&gt;" clip-path="url(#cp2)">
								<path id="&lt;Path&gt;" class="shp3" d="M610.9 527.75L583.93 527.75L583.93 401.83L610.9 401.83L610.9 527.75Z" />
								<path id="&lt;Path&gt;" class="shp3" d="M628.71 529.02L617.2 529.02L617.2 403.1L628.71 403.1L628.71 529.02Z" />
								<path id="&lt;Path&gt;" class="shp3" d="M644.52 529.13L633.02 529.13L633.02 403.21L644.52 403.21L644.52 529.13Z" />
							</g>
						</g>
					</g>
					<g id="&lt;Group&gt;">
						<path id="&lt;Path&gt;" class="shp4" d="M603.02 582.84L470.38 582.84C466.02 582.84 462.49 579.31 462.49 574.96L462.49 549.29C462.49 544.94 466.02 541.41 470.38 541.41L603.02 541.41C607.37 541.41 610.9 544.94 610.9 549.29L610.9 574.96C610.9 579.31 607.37 582.84 603.02 582.84Z" />
						<g id="&lt;Group&gt;">
							<path id="&lt;Path&gt;" class="shp2" d="M482.43 582.84L475.47 582.84L475.47 541.41L482.43 541.41L482.43 582.84Z" />
							<path id="&lt;Path&gt;" class="shp2" d="M498.93 582.84L491.97 582.84L491.97 541.41L498.93 541.41L498.93 582.84Z" />
							<path id="&lt;Path&gt;" class="shp2" d="M515.43 582.84L508.47 582.84L508.47 541.41L515.43 541.41L515.43 582.84Z" />
							<path id="&lt;Path&gt;" class="shp2" d="M531.93 582.84L524.96 582.84L524.96 541.41L531.93 541.41L531.93 582.84Z" />
							<path id="&lt;Path&gt;" class="shp2" d="M548.43 582.84L541.46 582.84L541.46 541.41L548.43 541.41L548.43 582.84Z" />
							<path id="&lt;Path&gt;" class="shp2" d="M564.93 582.84L557.96 582.84L557.96 541.41L564.93 541.41L564.93 582.84Z" />
							<path id="&lt;Path&gt;" class="shp2" d="M581.43 582.84L574.46 582.84L574.46 541.41L581.43 541.41L581.43 582.84Z" />
							<path id="&lt;Path&gt;" class="shp2" d="M597.93 582.84L590.96 582.84L590.96 541.41L597.93 541.41L597.93 582.84Z" />
						</g>
					</g>
					<path id="&lt;Path&gt;" class="shp5" d="M642.55 364.92L430.84 364.92L430.84 338.81L642.55 338.81L642.55 364.92Z" />
				</g>
				<path id="&lt;Path&gt;" class="shp2" d="M362.36 552.26L327.23 552.26L327.23 409.66L362.36 409.66L362.36 552.26Z" />
				<path id="&lt;Path&gt;" class="shp2" d="M746.16 556.57L711.03 556.57L711.03 413.97L746.16 413.97L746.16 556.57Z" />
			</g>
			<path id="&lt;Path&gt;" class="shp5" d="M676.51 1121.48L396.88 1121.48C380.64 1121.48 367.48 1108.32 367.48 1092.08L367.48 675.48C367.48 659.24 380.64 646.08 396.88 646.08L676.51 646.08C692.75 646.08 705.91 659.24 705.91 675.48L705.91 1092.08C705.91 1108.32 692.75 1121.48 676.51 1121.48Z" />
			<g id="&lt;Clip Group&gt;" clip-path="url(#cp3)">
				<path id="&lt;Path&gt;" class="shp1" d="M724.35 1157.28L348.51 1157.28L348.51 1034.16L724.35 1034.16L724.35 1157.28Z" />
			</g>
			<path id="&lt;Path&gt;" class="shp2" d="M532.88 918.64L532.88 918.64C474.96 918.64 428.01 871.69 428.01 813.77L428.01 646.08L637.75 646.08L637.75 813.77C637.75 871.69 590.8 918.64 532.88 918.64Z" />
			<g id="&lt;Clip Group&gt;" clip-path="url(#cp4)">
				<path id="&lt;Path&gt;" class="shp6" d="M490.68 817.1L474.18 817.1L474.18 721.84L490.68 721.84L490.68 817.1Z" />
				<path id="&lt;Path&gt;" class="shp6" d="M523.68 817.1L507.18 817.1L507.18 721.84L523.68 721.84L523.68 817.1Z" />
				<path id="&lt;Path&gt;" class="shp6" d="M556.68 817.1L540.18 817.1L540.18 721.84L556.68 721.84L556.68 817.1Z" />
				<path id="&lt;Path&gt;" class="shp6" d="M589.68 817.1L573.18 817.1L573.18 721.84L589.68 721.84L589.68 817.1Z" />
			</g>
			<g id="&lt;Group&gt;">
				<path id="&lt;Path&gt;" class="shp2" d="M462.49 1555.6L407.73 1555.6L407.73 1121.48L462.49 1121.48L462.49 1555.6Z" />
				<path id="&lt;Path&gt;" class="shp2" d="M665.13 1555.6L610.37 1555.6L610.37 1121.48L665.13 1121.48L665.13 1555.6Z" />
				<path id="&lt;Path&gt;" class="shp5" d="M483.43 1319.63C483.43 1346.32 461.8 1367.95 435.11 1367.95C408.43 1367.95 386.79 1346.32 386.79 1319.63C386.79 1292.95 408.43 1271.31 435.11 1271.31C461.8 1271.31 483.43 1292.95 483.43 1319.63Z" />
				<path id="&lt;Path&gt;" class="shp5" d="M686.07 1325.36C686.07 1352.05 664.44 1373.68 637.75 1373.68C611.07 1373.68 589.43 1352.05 589.43 1325.36C589.43 1298.68 611.07 1277.04 637.75 1277.04C664.44 1277.04 686.07 1298.68 686.07 1325.36Z" />
				<g id="&lt;Group&gt;">
					<path id="&lt;Path&gt;" class="shp5" d="M462.49 1727.94L348.51 1727.94L381.84 1577.9C384.74 1564.87 396.29 1555.6 409.64 1555.6L462.49 1555.6L462.49 1727.94Z" />
					<path id="&lt;Path&gt;" class="shp2" d="M462.49 1727.94L323.69 1727.94C323.69 1698.68 347.41 1674.97 376.66 1674.97L462.49 1674.97L462.49 1727.94Z" />
					<path id="&lt;Path&gt;" class="shp6" d="M370.36 1727.94L351.01 1727.94L351.01 1705.84L370.36 1705.84L370.36 1727.94Z" />
					<path id="&lt;Path&gt;" class="shp6" d="M402 1727.94L382.66 1727.94L382.66 1705.84L402 1705.84L402 1727.94Z" />
					<path id="&lt;Path&gt;" class="shp6" d="M431.83 1727.94L412.48 1727.94L412.48 1705.84L431.83 1705.84L431.83 1727.94Z" />
				</g>
				<g id="&lt;Group&gt;">
					<path id="&lt;Path&gt;" class="shp5" d="M610.37 1727.94L724.35 1727.94L691.03 1577.9C688.13 1564.87 676.57 1555.6 663.22 1555.6L610.37 1555.6L610.37 1727.94Z" />
					<path id="&lt;Path&gt;" class="shp2" d="M610.37 1727.94L749.17 1727.94C749.17 1698.68 725.46 1674.97 696.21 1674.97L610.37 1674.97L610.37 1727.94Z" />
					<path id="&lt;Path&gt;" class="shp6" d="M702.5 1727.94L721.85 1727.94L721.85 1705.84L702.5 1705.84L702.5 1727.94Z" />
					<path id="&lt;Path&gt;" class="shp6" d="M670.86 1727.94L690.21 1727.94L690.21 1705.84L670.86 1705.84L670.86 1727.94Z" />
					<path id="&lt;Path&gt;" class="shp6" d="M641.04 1727.94L660.39 1727.94L660.39 1705.84L641.04 1705.84L641.04 1727.94Z" />
				</g>
				<g id="&lt;Group&gt;">
					<path id="&lt;Path&gt;" class="shp6" d="M445.28 1555.6L424.94 1555.6L424.94 1410.32L445.28 1410.32L445.28 1555.6Z" />
					<path id="&lt;Path&gt;" class="shp6" d="M647.92 1555.6L627.58 1555.6L627.58 1410.32L647.92 1410.32L647.92 1555.6Z" />
				</g>
				<g id="&lt;Group&gt;">
					<path id="&lt;Path&gt;" class="shp6" d="M445.55 1150.56L425.21 1150.56L425.21 1121.48L445.55 1121.48L445.55 1150.56Z" />
					<path id="&lt;Path&gt;" class="shp6" d="M648.19 1150.56L627.85 1150.56L627.85 1121.48L648.19 1121.48L648.19 1150.56Z" />
				</g>
			</g>
			<g id="&lt;Group&gt;">
				<g id="&lt;Group&gt;">
					<path id="&lt;Path&gt;" class="shp2" d="M367.48 672.04L327.23 672.04L271.84 672.04L271.84 768.78L271.84 769.47L290.75 769.47L290.75 973.7L308.32 972.59L308.32 769.47L367.48 769.47L367.48 672.04Z" />
					<path id="&lt;Path&gt;" class="shp6" d="M308.32 769.47L290.76 769.47L290.76 735.22L308.32 735.22L308.32 769.47Z" />
				</g>
				<path id="&lt;Path&gt;" class="shp5" d="M325.56 982.85C325.56 997.68 313.54 1009.71 298.7 1009.71C283.87 1009.71 271.84 997.68 271.84 982.85C271.84 968.01 283.87 955.98 298.7 955.98C313.54 955.98 325.56 968.01 325.56 982.85Z" />
			</g>
			<g id="&lt;Group&gt;">
				<g id="&lt;Group&gt;">
					<path id="&lt;Path&gt;" class="shp2" d="M705.91 672.04L746.16 672.04L801.55 672.04L801.55 768.78L801.55 769.47L782.64 769.47L782.64 973.7L765.08 972.59L765.08 769.47L705.91 769.47L705.91 672.04Z" />
					<path id="&lt;Path&gt;" class="shp6" d="M765.08 769.47L782.64 769.47L782.64 735.22L765.08 735.22L765.08 769.47Z" />
				</g>
				<path id="&lt;Path&gt;" class="shp5" d="M747.83 982.85C747.83 997.68 759.86 1009.71 774.69 1009.71C789.53 1009.71 801.55 997.68 801.55 982.85C801.55 968.01 789.53 955.98 774.69 955.98C759.86 955.98 747.83 968.01 747.83 982.85Z" />
			</g>
			<g id="&lt;Group&gt;">
				<path id="&lt;Path&gt;" class="shp6" d="M256.17 919.76L763.72 1069.02C766.06 1119.91 800.15 1166.01 851.77 1181.19C906.46 1197.27 963.39 1173.53 991.53 1126.92L913.15 1128.69C886.69 1129.28 863.9 1110.17 859.87 1084.01L859.87 1084.01C855.05 1052.74 878.68 1024.29 910.31 1023.3L1001.47 1020.42C988.4 985.48 959.62 956.9 921.07 945.56C869.45 930.38 815.82 950.68 786.31 992.21L278.75 842.95C276.42 792.06 242.32 745.96 190.7 730.78C136.01 714.7 79.08 738.44 50.94 785.05L129.32 783.28C155.78 782.69 178.58 801.8 182.61 827.96L182.61 827.96C187.42 859.23 163.79 887.68 132.17 888.67L41 891.55C54.08 926.49 82.86 955.07 121.41 966.41C173.03 981.59 226.65 961.29 256.17 919.76Z" />
				<path id="&lt;Path&gt;" class="shp4" d="M312.32 894.55L312.32 894.55C314.94 885.63 324.29 880.53 333.21 883.15L693.39 989.07C702.3 991.7 707.41 1001.05 704.78 1009.96C702.16 1018.88 692.81 1023.98 683.9 1021.36L323.71 915.43C314.8 912.81 309.7 903.46 312.32 894.55Z" />
			</g>
			<g id="&lt;Group&gt;">
				<path id="&lt;Path&gt;" class="shp2" d="M399.99 833.05C386.22 827 370.15 833.27 364.11 847.04L337.35 908.01L350.2 913.64L296.55 974.81C293.35 978.45 293.71 984 297.36 987.2L297.36 987.2C301 990.39 306.55 990.03 309.75 986.39L367.06 921.04L387.23 929.89L413.99 868.93C420.03 855.16 413.77 839.09 399.99 833.05Z" />
				<path id="&lt;Path&gt;" class="shp5" d="M337.35 908.01L387.23 929.89L393.67 915.22L344.08 892.68L337.35 908.01Z" />
			</g>
			<path id="&lt;Path&gt;" class="shp5" d="M732.66 992.03L714.39 994.37" />
			<g id="&lt;Group&gt;">
				<path id="&lt;Path&gt;" class="shp2" d="M757.74 1060.19L712.77 1064.33L707.79 1010.14C706.65 997.72 715.79 986.73 728.21 985.59L728.21 985.59C740.62 984.45 751.61 993.59 752.75 1006.01L757.74 1060.19Z" />
				<path id="&lt;Path&gt;" class="shp5" d="M757.74 1060.19L712.77 1064.33L711.56 1051.11L756.52 1046.97L757.74 1060.19Z" />
				<path id="&lt;Path&gt;" class="shp2" d="M737.11 1082.44C732.06 1082.91 727.58 1079.19 727.12 1074.13L726.1 1063.1L744.4 1061.42L745.42 1072.45C745.88 1077.5 742.16 1081.98 737.11 1082.44Z" />
			</g>
			<g id="&lt;Group&gt;">
				<path id="&lt;Path&gt;" class="shp2" d="M544.95 338.81L524.96 338.81L524.96 234.4L544.95 234.4L544.95 338.81Z" />
				<path id="&lt;Path&gt;" class="shp0" d="M564.93 223.27C564.93 239.99 551.38 253.54 534.66 253.54C517.94 253.54 504.39 239.99 504.39 223.27C504.39 206.55 517.94 193 534.66 193C551.38 193 564.93 206.55 564.93 223.27Z" />
				<path id="&lt;Path&gt;" class="shp3" d="M557.96 213.58C557.96 222.7 550.57 230.08 541.46 230.08C532.35 230.08 524.96 222.7 524.96 213.58C524.96 204.47 532.35 197.09 541.46 197.09C550.57 197.09 557.96 204.47 557.96 213.58Z" />
			</g>
			<g id="&lt;Group&gt;">
				<path id="&lt;Path&gt;" class="shp3" d="M362.36 446.21L344.79 446.21L344.79 428.64L362.36 428.64L362.36 446.21Z" />
				<path id="&lt;Path&gt;" class="shp3" d="M362.36 475.23L344.79 475.23L344.79 457.67L362.36 457.67L362.36 475.23Z" />
				<path id="&lt;Path&gt;" class="shp3" d="M362.36 504.25L344.79 504.25L344.79 486.69L362.36 486.69L362.36 504.25Z" />
				<path id="&lt;Path&gt;" class="shp3" d="M362.36 533.27L344.79 533.27L344.79 515.71L362.36 515.71L362.36 533.27Z" />
			</g>
			<g id="&lt;Group&gt;">
				<path id="&lt;Path&gt;" class="shp3" d="M728.46 450.52L710.9 450.52L710.9 432.95L728.46 432.95L728.46 450.52Z" />
				<path id="&lt;Path&gt;" class="shp3" d="M728.46 479.54L710.9 479.54L710.9 461.97L728.46 461.97L728.46 479.54Z" />
				<path id="&lt;Path&gt;" class="shp3" d="M728.46 508.56L710.9 508.56L710.9 491L728.46 491L728.46 508.56Z" />
				<path id="&lt;Path&gt;" class="shp3" d="M728.46 537.58L710.9 537.58L710.9 520.02L728.46 520.02L728.46 537.58Z" />
			</g>
		</g>
		<g id="&lt;Group&gt;">
			<path id="&lt;Path&gt;" class="shp7" d="M815.09 582.84L918.87 443.91L922.51 520.02L1039 441.74L896.13 593.14L897.97 511.36L815.09 582.84Z" />
			<path id="&lt;Path&gt;" class="shp7" d="M279.64 1136.02L87.5 1319.63L196.41 1285.37L79.48 1450.63L319.66 1227.51L234.89 1235.54L279.64 1136.02Z" />
			<path id="&lt;Path&gt;" class="shp7" d="M271.84 620.96L235.69 488.98L207.6 536.22L155.25 445.59L196.11 616.65L225.47 557.93L271.84 620.96Z" />
			<path id="&lt;Path&gt;" class="shp7" d="M736.43 1219.5L760.16 1306.11L778.59 1275.11L812.95 1334.59L786.13 1222.33L766.86 1260.86L736.43 1219.5Z" />
		</g>
	</g>
</svg>